<?xml version="1.0" encoding="UTF-8" standalone="no"?>
<!-- Created with Inkscape (http://www.inkscape.org/) -->

<svg
   xmlns:dc="http://purl.org/dc/elements/1.1/"
   xmlns:cc="http://creativecommons.org/ns#"
   xmlns:rdf="http://www.w3.org/1999/02/22-rdf-syntax-ns#"
   xmlns:svg="http://www.w3.org/2000/svg"
   xmlns="http://www.w3.org/2000/svg"
   version="1.1"
   width="64"
   height="64"
   id="svg3095">
  <defs
     id="defs3097" />
  <metadata
     id="metadata3100">
    <rdf:RDF>
      <cc:Work
         rdf:about="">
        <dc:format>image/svg+xml</dc:format>
        <dc:type
           rdf:resource="http://purl.org/dc/dcmitype/StillImage" />
        <dc:title></dc:title>
      </cc:Work>
    </rdf:RDF>
  </metadata>
  <g
     id="layer1">
    <path
       d="m 14.370158,13.172566 c 0.584321,-0.1722 1.137118,-0.423704 1.732612,-0.557466 0.571495,-0.03691 1.090313,-0.267825 1.648541,-0.375074 0.09286,-0.01436 0.187924,-0.01839 0.278589,-0.04309 0.16107,-0.04387 0.307417,-0.131334 0.466055,-0.183311 0.26492,-0.0868 0.516217,-0.123505 0.771742,-0.238876 0.08377,-0.03283 0.170803,-0.05834 0.251321,-0.0985 0.623205,-0.310843 -0.168444,0.02011 0.490622,-0.274125 0.290224,-0.129568 0.588263,-0.195816 0.898092,-0.257859 0.375751,-0.202033 0.800704,-0.236386 1.202946,-0.345683 0.200643,-0.05452 0.390972,-0.141706 0.587708,-0.208974 0.299825,-0.124056 0.630923,-0.123805 0.940975,-0.198588 0.287252,-0.06928 0.572981,-0.19401 0.837928,-0.321081 0.597716,-0.2711205 1.249461,-0.3819604 1.886375,-0.522489 0.550522,-0.080488 1.116131,-0.1818119 1.673172,-0.1238901 0.33747,0.035653 0.630534,0.2072915 0.870876,0.4391654 0.21963,0.1595147 0.331363,0.4143507 0.502059,0.6180987 0.21502,0.239717 0.319271,0.534635 0.445944,0.823103 0.128188,0.266348 0.274669,0.522805 0.397354,0.793026 0.127465,0.265842 0.259793,0.440189 0.547965,0.518007 0.324187,0.0573 0.655406,0.05143 0.983438,0.05177 0.458128,-0.0019 0.916258,-0.0015 1.374388,-8.39e-4 0.586869,-0.165893 1.203146,-0.198753 1.786908,-0.367498 0.650702,-0.236292 1.356706,-0.207026 2.015818,-0.3877 0.618721,-0.199143 1.263717,-0.26502 1.908779,-0.305733 0.116104,-0.0047 0.232871,-9.28e-4 0.348313,-0.01419 0.04405,-0.0051 0.660022,-0.127994 0.697596,-0.135028 0.370742,-0.0694 0.734669,-0.120114 1.100877,-0.212376 0.797054,-0.15854 1.579884,-0.370098 2.374508,-0.539118 0.786855,-0.09568 1.547099,-0.31688 2.32794,-0.447801 0.710969,-0.144301 1.448817,-0.0474 2.155243,-0.19458 0.616606,-0.1677064 1.250911,-0.2308004 1.886034,-0.2749265 0.45017,-0.046049 0.88968,0.025541 1.309799,0.1810676 0.366109,0.083432 0.730459,0.1554289 1.037023,0.3817619 0.248547,0.148497 0.4645,0.338306 0.694382,0.511909 0.199692,0.149929 0.266051,0.443455 0.486181,0.564446 0.01613,-0.01565 0.02986,-0.03423 0.04839,-0.04694 0.08631,-0.05916 0.160737,-0.135942 0.256139,-0.183247 0.03982,-0.01974 0.162242,-0.07177 0.123822,-0.04944 -0.733853,0.426664 -1.474197,0.842065 -2.211296,1.263098 0.172375,-0.09768 0.277856,-0.272813 0.37745,-0.438403 0,0 2.464156,-1.117204 2.464156,-1.117204 l 0,0 c -0.08367,0.209148 -0.205659,0.381344 -0.315788,0.575529 -0.811677,0.467769 -1.622698,0.936678 -2.43503,1.403308 -0.113163,0.06501 -0.218423,0.128098 -0.352976,0.126677 -0.138145,-0.0015 -0.129628,-0.01798 -0.251598,-0.08761 -0.181826,-0.1728 -0.298091,-0.397562 -0.482332,-0.56711 -0.218039,-0.177355 -0.443847,-0.342515 -0.679447,-0.496037 -0.308369,-0.176502 -0.666283,-0.212566 -0.999786,-0.323989 -0.396642,-0.126525 -0.815299,-0.142754 -1.228333,-0.103571 -0.631543,0.05338 -1.253721,0.155396 -1.872803,0.291275 -0.713953,0.07625 -1.438093,0.05434 -2.145916,0.194587 -0.773681,0.145643 -1.538038,0.336368 -2.317126,0.453594 -0.791839,0.182016 -1.581359,0.370752 -2.375494,0.54269 -0.71762,0.149999 -1.444287,0.291808 -2.177002,0.333688 -0.639566,0.0559 -1.269366,0.159919 -1.887234,0.338552 -0.672997,0.119601 -1.357295,0.181631 -2.012104,0.392671 -0.604683,0.127933 -1.216706,0.242812 -1.8295,0.318265 -0.462684,0.0029 -0.925383,0.0088 -1.388075,0.0067 -0.350432,-0.0063 -0.708836,-0.0082 -1.042599,-0.128692 -0.315622,-0.151697 -0.507068,-0.383127 -0.656661,-0.69797 -0.122783,-0.27103 -0.274129,-0.526068 -0.399453,-0.794823 -0.118703,-0.267014 -0.206,-0.541932 -0.413367,-0.760006 -0.154955,-0.198556 -0.272708,-0.428946 -0.479315,-0.581248 -0.222084,-0.181849 -0.468284,-0.289092 -0.760082,-0.294067 -0.543747,-0.0048 -1.087546,0.06572 -1.618954,0.17806 -0.630512,0.146452 -1.269746,0.269837 -1.854872,0.560221 -0.584836,0.223599 -1.195562,0.320134 -1.792685,0.502538 -0.596466,0.196295 -1.212286,0.324057 -1.804898,0.533948 -0.573334,0.154702 -1.078933,0.436143 -1.624235,0.662808 -0.50876,0.157635 -1.014696,0.334236 -1.538609,0.432685 -0.546497,0.134001 -1.080848,0.308265 -1.641289,0.380936 -0.592218,0.168339 -1.156838,0.429283 -1.766223,0.536269 0,0 2.167023,-1.61137 2.167023,-1.61137 z"
       id="path3103"
       style="fill:#aae4ea;fill-opacity:1;stroke:none" />
    <path
       d="m 9.633926,21.684764 c 0.600202,-0.312188 1.250581,-0.466799 1.914734,-0.564803 0.592942,-0.186945 1.202687,-0.31689 1.731205,-0.655275 0.615283,-0.300691 1.244044,-0.562029 1.911324,-0.72189 0.656676,-0.272135 1.332353,-0.495605 1.989052,-0.767142 0.484125,-0.291249 1.029462,-0.428369 1.554142,-0.616304 0.230657,-0.08262 0.452638,-0.188148 0.682929,-0.271784 0.50277,-0.09695 0.930961,-0.378843 1.394296,-0.576436 0.983696,-0.419506 -0.25931,0.147208 0.719207,-0.3061 0.121301,-0.04921 0.24436,-0.0943 0.363904,-0.147634 0.482381,-0.215234 0.231182,-0.139361 0.723424,-0.331922 0.359755,-0.140732 0.734635,-0.228341 1.098613,-0.357427 0.129068,-0.0376 0.257238,-0.07843 0.387203,-0.112798 0.131657,-0.03482 0.267241,-0.05471 0.397422,-0.0947 0.421898,-0.12959 0.817269,-0.33251 1.223074,-0.501973 0.39248,-0.164124 0.810906,-0.24345 1.220458,-0.104314 0.299686,0.08443 0.482081,0.305695 0.671534,0.533306 0.15723,0.267862 0.275437,0.556204 0.428058,0.828411 0.142618,0.304423 0.218173,0.635961 0.346783,0.946295 0.113806,0.263221 0.15394,0.533094 0.356435,0.743942 0.225293,0.197142 0.45182,0.320416 0.745386,0.377952 0.289487,0.119352 0.594258,0.186683 0.893722,0.275642 0.389744,0.1051 0.795954,0.112412 1.196845,0.12454 0.562811,0.01141 1.125809,0.01064 1.68871,0.0095 0.612714,-4.02e-4 1.225425,-0.0011 1.838139,-5.22e-4 0.669765,0.05741 1.311962,-0.134734 1.96769,-0.236068 0.627196,-0.005 1.201868,-0.244673 1.807776,-0.367267 0.640317,-0.105303 1.291035,-0.111338 1.938198,-0.123194 0.540743,-0.147937 1.085794,-0.259983 1.643703,-0.314785 0.567841,-0.04799 1.138388,-0.05028 1.707885,-0.05497 0.287563,-0.02476 0.582611,0.02721 0.869588,-0.0014 0.510897,-0.05102 -0.154813,-0.03155 0.304638,-0.03827 0.332964,-0.0122 0.662525,-0.08801 0.998344,-0.110529 0.410875,-0.02514 0.822589,-0.02956 1.2341,-0.03218 0.202712,0.08542 0.404124,0.04318 0.610854,0.05362 0.004,2.03e-4 0.282781,0.0499 0.290445,0.05126 0.116829,-0.01973 0.23332,-0.03961 0.350684,-0.0559 0,0 -2.173526,1.618221 -2.173526,1.618221 l 0,0 c -0.130708,0.01258 -0.260712,0.02662 -0.390861,-0.0022 -0.289696,-0.0321 -0.582197,-0.03389 -0.871157,-0.07558 -0.407072,0.0046 -0.814701,0.01116 -1.220239,0.04995 -0.336794,0.03987 -0.670545,0.107726 -1.01082,0.108216 -0.388139,0.0413 -0.779516,0.0082 -1.169007,0.01914 -0.562907,0.0043 -1.127027,0.01121 -1.68691,0.07592 -0.556404,0.07619 -1.096644,0.230991 -1.654606,0.290727 -0.639602,0.01471 -1.283871,0.03301 -1.91137,0.169898 -0.599504,0.146865 -1.190833,0.312148 -1.811178,0.350346 -0.661869,0.113939 -1.318166,0.255559 -1.995209,0.202576 -0.613689,0.0012 -1.227377,0.0016 -1.841066,0.0027 -0.567028,-4.42e-4 -1.134227,0.0034 -1.701074,-0.01366 -0.41903,-0.01977 -0.84099,-0.04457 -1.243256,-0.174599 -0.297098,-0.08863 -0.598754,-0.160414 -0.890165,-0.267613 -0.319205,-0.103229 -0.588516,-0.274676 -0.831175,-0.507285 -0.215014,-0.244824 -0.293099,-0.523555 -0.40173,-0.824842 -0.1273,-0.300099 -0.202088,-0.620978 -0.332687,-0.919429 -0.143764,-0.258309 -0.260325,-0.529995 -0.40582,-0.784958 -0.155852,-0.19081 -0.318654,-0.34362 -0.573811,-0.386038 -0.38958,-0.03824 -0.749847,0.06727 -1.103579,0.229499 -0.652686,0.282578 -1.324221,0.497969 -2.009887,0.685789 -0.742205,0.241282 -1.464838,0.517014 -2.169126,0.856063 -0.702695,0.306376 -1.391562,0.649971 -2.127521,0.871135 -0.749112,0.286063 -1.513974,0.529257 -2.232292,0.891251 -0.668309,0.252966 -1.329479,0.526227 -2.010392,0.743835 -0.652153,0.190177 -1.278205,0.460068 -1.877694,0.779352 -0.566765,0.267835 -1.168508,0.44371 -1.7801165,0.578018 -0.6660764,0.125016 -1.2915341,0.349288 -1.9233342,0.589121 0,0 2.1491047,-1.634387 2.1491047,-1.634387 z"
       id="path3105"
       style="fill:#aae4ea;fill-opacity:1;stroke:none" />
    <path
       d="m 10.360489,33.63672 c 0.424192,-0.527821 0.968872,-0.898876 1.530781,-1.261676 0.440531,-0.276359 0.792283,-0.657736 1.209073,-0.964897 0.418537,-0.228761 0.722428,-0.631897 1.131712,-0.869728 0.852727,-0.495513 1.716183,-0.972327 2.574275,-1.45849 0.57064,-0.237901 1.128054,-0.505835 1.696825,-0.749447 -0.214169,0.09319 0.762944,-0.446395 0.570786,-0.337252 -6.841925,3.88612 5.678256,-3.273104 -1.238448,0.678204 7.101794,-4.076589 0.35616,-0.208194 0.535972,-0.309249 1.659064,-0.9324 2.158634,-1.330293 3.560761,-1.884726 0.328472,-0.201478 0.706038,-0.291028 1.05701,-0.437405 0.310459,-0.12948 0.618583,-0.296586 0.911944,-0.460581 0.669006,-0.285625 1.332085,-0.586274 2.002738,-0.869165 0.66607,-0.186558 1.290082,-0.480399 1.965771,-0.634159 0.52206,-0.016 0.917512,-0.450264 1.410093,-0.227599 0.258795,0.221829 0.263836,0.560915 0.337751,0.869379 0.06162,0.250933 0.06617,0.543987 0.262054,0.733118 0.293681,0.137552 0.607963,0.215421 0.933009,0.212299 0.258124,-0.05022 0.544075,0.0014 0.799572,-0.05858 0.133181,-0.03129 0.252311,-0.106097 0.380731,-0.153261 0.566169,-0.171231 1.161218,-0.19563 1.747916,-0.224979 0.646002,-0.02198 1.292549,-0.02089 1.938846,-0.02012 0.482022,-0.02102 0.948804,-0.07715 1.432518,-0.04743 0.34961,0.02582 0.700012,0.03559 1.050431,0.04119 0.35984,0.0043 0.719714,0.004 1.079573,0.004 0.343354,0.01297 0.675669,0.110011 1.019534,0.14455 0.361679,-0.0068 0.703232,0.107508 1.056504,0.165048 0.163946,0.02428 0.329436,0.03293 0.494707,0.04203 0,0 -2.199077,1.573234 -2.199077,1.573234 l 0,0 c -0.171437,-0.01564 -0.343025,-0.03147 -0.51218,-0.06487 -0.346079,-0.06906 -0.689148,-0.141925 -1.043678,-0.15323 -0.334003,-0.0444 -0.662831,-0.136524 -1.002317,-0.118354 -0.361098,-3.85e-4 -0.722232,-6.06e-4 -1.083268,-0.0081 -0.351605,-0.009 -0.702784,-0.02599 -1.053848,-0.04742 -0.472093,-0.01508 -0.93746,0.0627 -1.409869,0.0467 -0.643449,10e-4 -1.287345,-0.0011 -1.930122,0.0327 -0.580301,0.03752 -1.164688,0.08915 -1.715229,0.290814 -0.402027,0.124395 -0.824762,0.141406 -1.24394,0.127906 -0.373199,-0.04945 -0.763859,-0.130617 -1.057871,-0.380852 -0.203109,-0.246947 -0.279374,-0.537491 -0.326203,-0.850082 -0.02445,-0.09896 -0.05555,-0.196494 -0.07347,-0.296838 -0.01887,-0.105664 0.0088,-0.277069 -0.114858,-0.322438 -0.448662,0.02223 -0.856832,0.294961 -1.308524,0.322312 -0.655126,0.185284 -1.288584,0.443931 -1.93279,0.662228 -0.665588,0.29421 -1.34211,0.565894 -1.99396,0.88933 -0.647501,0.324451 -1.324286,0.575686 -1.98282,0.876007 -0.29345,0.125681 -0.369698,0.156188 -0.659086,0.288645 -0.100731,0.04611 -0.395845,0.198164 -0.300958,0.140988 0.586019,-0.353115 5.590026,-3.239197 -0.564682,0.32264 -0.679554,0.39327 1.358142,-0.788207 2.037213,-1.18231 -0.853907,0.492684 -1.694422,1.009345 -2.561721,1.478054 -0.177467,0.09591 2.985298,-1.761349 1.746864,-1.021132 -0.846453,0.505928 -1.692016,1.013353 -2.539911,1.51686 -0.228098,0.135452 -0.346888,0.192684 -0.58364,0.315509 -0.564045,0.25702 -1.134732,0.498936 -1.696422,0.760732 0.675926,-0.398172 1.351853,-0.796344 2.027779,-1.194516 -0.08479,0.05019 -0.173479,0.09431 -0.254373,0.15056 -0.35772,0.248757 -0.108429,0.11574 -0.439942,0.398253 -0.102176,0.08707 -0.32265,0.221729 -0.439664,0.295887 -0.519138,0.448309 0.146803,-0.10608 -0.400887,0.28527 -0.270572,0.193338 -0.495426,0.54588 -0.804637,0.714221 -0.880591,0.511133 0.34959,-0.214458 -0.539207,0.349128 -0.09568,0.06067 -0.201984,0.103701 -0.296491,0.166188 -0.276549,0.182852 -0.498138,0.427466 -0.706054,0.682416 0,0 -2.492593,1.032466 -2.492593,1.032466 z"
       id="path3107"
       style="fill:#aae4ea;fill-opacity:1;stroke:none" />
    <path
       d="m 10.361199,40.412036 c 0.374969,-0.218673 0.803576,-0.297372 1.205839,-0.440284 0.20155,-0.0716 0.391546,-0.172445 0.589628,-0.253147 0.268977,-0.181435 0.585361,-0.272778 0.871361,-0.416844 0.0873,-0.04397 0.164031,-0.106521 0.248747,-0.155277 0.249994,-0.143877 0.256845,-0.135288 0.525356,-0.241695 0.620209,-0.307341 1.28837,-0.492745 1.918307,-0.780037 0.731827,-0.313688 1.457321,-0.648962 2.161873,-1.020899 0.71291,-0.36797 1.445904,-0.68706 2.193791,-0.977189 0.458513,-0.262774 0.980227,-0.374251 1.45443,-0.599336 0.243313,-0.11549 0.47846,-0.247614 0.721119,-0.364473 0.740322,-0.289182 1.440464,-0.667696 2.190513,-0.931926 0.619215,-0.315503 1.218994,-0.6458 1.890746,-0.834734 0.330043,-0.02873 0.62203,-0.182745 0.933945,-0.277798 0.0987,-0.03008 0.202184,-0.0447 0.29873,-0.08111 0.175594,-0.06621 0.337505,-0.164385 0.509105,-0.240352 0.09065,-0.03098 0.18485,-0.05306 0.271948,-0.09296 0.08155,-0.03735 0.154196,-0.09169 0.231294,-0.13753 0.08093,-0.04024 0.159824,-0.08487 0.242799,-0.120706 0.27525,-0.118871 0.558564,-0.174919 0.851659,-0.22829 0.516734,-0.101036 0.91163,-0.09611 1.398891,0.09135 0.247409,0.193387 0.456567,0.44096 0.731517,0.59547 0.255006,0.21087 0.414335,0.51129 0.710109,0.676516 0.397427,0.107447 0.696636,0.364405 1.033185,0.582515 0.402945,0.189334 0.750265,0.420891 1.180453,0.551676 0.434476,0.125283 0.868087,0.225243 1.318172,0.274537 0.440899,0.05512 0.88823,-0.01132 1.318273,0.103571 0.211901,0.04249 0.417157,0.168305 0.636147,0.18059 0.190803,0.0107 0.439563,-0.07588 0.62701,-0.103286 0.308835,-0.06514 0.632298,-0.03724 0.942012,-0.08769 0.100797,-0.01642 0.195258,-0.06227 0.295984,-0.07912 0.149656,-0.02504 0.46056,-0.02369 0.611262,-0.02581 0.557981,-0.151641 1.127916,-0.225403 1.703064,-0.268696 0.219641,-0.02309 0.424275,-0.122445 0.642233,-0.152668 0.109855,-0.01523 0.222212,-2.13e-4 0.332509,-0.01182 0.251741,-0.0265 0.507094,-0.09963 0.755858,-0.147429 0.362188,-0.08596 0.709023,0.01107 1.052535,0.118441 0.2732,0.06162 0.515447,0.185759 0.708031,0.387842 0,0 -2.30728,1.418903 -2.30728,1.418903 l 0,0 c -0.179326,-0.153638 -0.407789,-0.220302 -0.633183,-0.279551 -0.322665,-0.08693 -0.643943,-0.103389 -0.971302,-0.02081 -0.577384,0.106024 -1.161128,0.165862 -1.736396,0.283686 -0.576618,0.05934 -1.139675,0.183776 -1.713177,0.259566 -0.615184,0.03997 -1.223566,0.160077 -1.837492,0.218691 -0.13806,0.01958 -0.332802,0.05441 -0.476538,0.04932 -0.29201,-0.01034 -0.559404,-0.144078 -0.842802,-0.198481 -0.434124,-0.05158 -0.875067,-0.01812 -1.308454,-0.08834 -0.458399,-0.06779 -0.904912,-0.180976 -1.347195,-0.319134 -0.429016,-0.158371 -0.819067,-0.394236 -1.220933,-0.609691 -0.33093,-0.226244 -0.666105,-0.41935 -1.036181,-0.577185 -0.26884,-0.195435 -0.456648,-0.466147 -0.713265,-0.671669 -0.240942,-0.169865 -0.442117,-0.391534 -0.694655,-0.544076 -0.427335,-0.131565 -0.865131,-0.07622 -1.296841,0.0177 -0.552771,0.141102 -1.043636,0.404713 -1.567592,0.623722 -0.564403,0.24522 -1.157457,0.417957 -1.752908,0.570755 -0.651264,0.226609 -1.241112,0.579033 -1.877405,0.842371 -0.735394,0.290451 -1.445121,0.641866 -2.173075,0.950455 -0.716247,0.350798 -1.458023,0.631521 -2.188903,0.949683 -0.739066,0.303233 -1.469129,0.622419 -2.176276,0.99539 -0.715689,0.356254 -1.437211,0.702699 -2.175535,1.009808 -0.642001,0.264897 -1.304044,0.480673 -1.927651,0.788678 -0.550286,0.265534 -1.085648,0.56222 -1.646979,0.80563 -0.6035401,0.244216 -1.2256231,0.441145 -1.835522,0.667573 0,0 2.149105,-1.634388 2.149105,-1.634388 z"
       id="path3109"
       style="fill:#aae4ea;fill-opacity:1;stroke:none" />
    <path
       d="m 13.308715,48.116267 c 0.105403,0.0014 0.21115,0.0128 0.316209,0.0042 0.05654,-0.0046 0.619953,-0.112553 0.666286,-0.120888 0.350949,-0.06313 0.682604,-0.103024 1.021895,-0.214854 0.100335,-0.0327 0.204717,-0.05492 0.301005,-0.09811 0.173554,-0.07784 0.324356,-0.20017 0.495959,-0.282227 0.256972,-0.122881 0.533042,-0.19103 0.797311,-0.295959 0.08542,-0.02647 0.172775,-0.04734 0.256249,-0.07942 0.590418,-0.226867 -0.08623,-0.01399 0.544859,-0.227476 0.308676,-0.10442 0.614046,-0.156773 0.916161,-0.281445 0.09457,-0.03526 0.193337,-0.06087 0.283726,-0.105795 0.166051,-0.10735 0.299557,-0.200681 0.477586,-0.287914 0.271399,-0.132983 0.548869,-0.260888 0.826713,-0.380472 -5.313955,3.042917 0.350404,-0.217892 0.530287,-0.318778 0.286179,-0.160499 0.284409,-0.09357 0.587425,-0.214623 0.179992,-0.0719 0.34868,-0.1697 0.526691,-0.246378 -0.17679,0.06942 0.743622,-0.390264 0.562436,-0.284038 -4.752002,2.786006 -0.05749,-0.160349 1.047159,-0.559446 0.423494,-0.263516 0.907548,-0.488138 1.414354,-0.40954 0.374745,0.161042 0.455421,0.529525 0.498158,0.8975 0.02576,0.366798 0.01671,0.734937 0.01322,1.102318 -0.02736,0.315399 -0.08461,0.63347 -0.18439,0.934471 -0.09751,0.26093 0.05511,0.158974 0.207491,0.110995 0.293321,-0.03995 0.574492,-0.08715 0.837839,-0.227668 0.195721,-0.12198 0.428697,-0.125758 0.64226,-0.186936 0.09699,-0.02778 0.186857,-0.07636 0.282026,-0.109835 0.246605,-0.209489 0.526891,-0.07098 0.714711,0.140127 0.15003,0.222041 0.162933,0.512798 0.357829,0.704197 0.177836,0.109617 0.235565,0.02109 0.387337,-0.06121 0.07578,-0.04109 0.322473,-0.119531 0.396954,-0.144501 -0.179298,0.206577 0.975646,-0.439588 0.691174,-0.273942 -0.694879,0.404623 -1.396406,0.797799 -2.099317,1.188302 -0.06896,0.03831 0.128862,-0.09137 0.196849,-0.131385 0.834156,-0.490956 1.672818,-0.974213 2.509227,-1.46132 0.442874,-0.152852 0.04964,-0.0083 0.45984,-0.183272 0.0688,-0.02935 0.273399,-0.119898 0.20882,-0.08215 -0.70825,0.413952 -1.42616,0.811177 -2.141924,1.211998 -0.06248,0.03499 0.119638,-0.07891 0.18185,-0.114374 0.838471,-0.477944 1.680006,-0.95049 2.52001,-1.425736 0.08257,-0.02225 0.164242,-0.04818 0.247721,-0.06675 0.09138,-0.02033 0.186461,-0.02386 0.276399,-0.04985 0.234788,-0.06786 0.274142,-0.129465 0.487879,-0.249452 0.260622,-0.146308 0.287848,-0.147199 0.567559,-0.261628 0.423055,-0.130025 0.207522,-0.04514 0.589769,-0.233195 0.08473,-0.04168 0.336492,-0.171177 0.254681,-0.124027 -0.694284,0.400134 -1.390944,0.796267 -2.092625,1.183284 -0.07362,0.04061 0.134927,-0.100939 0.207439,-0.143496 0.838892,-0.492348 1.684079,-0.97389 2.526118,-1.460835 0.442078,-0.115389 0.780501,-0.461336 1.21832,-0.188269 0.252952,0.253951 0.239861,0.601847 0.28923,0.931212 0.0598,0.276215 0.08449,0.561398 0.219781,0.813629 0.02334,0.02225 0.04087,0.05295 0.07001,0.06674 0.09836,0.04653 0.546067,-0.02374 0.663369,-0.02909 0.458136,-0.148433 0.946562,-0.10528 1.402756,-0.247156 0.570388,-0.224497 1.196013,-0.190473 1.775573,-0.359914 0.281419,-0.118133 0.595154,-0.125695 0.884533,-0.208165 0.273432,-0.07792 0.535902,-0.206074 0.810875,-0.28665 0.301661,-0.103834 0.627753,-0.08698 0.936034,-0.147844 0.287082,-0.05668 0.572529,-0.169656 0.858263,-0.238472 0.352677,-0.05294 0.735162,-0.183399 1.089382,-0.06042 0.08168,0.02836 0.243786,0.135722 0.320729,0.184268 0.24634,0.196028 0.311973,0.511576 0.46721,0.770555 0.160999,0.181295 0.299761,-0.0111 0.476094,-0.06933 0.82877,-0.246827 2.674516,-1.454547 -1.850096,1.11087 -0.07209,0.04087 0.135428,-0.0969 0.19381,-0.155713 8.056725,-4.711779 -1.541721,0.861252 0.293507,-0.209347 0,0 2.522405,-0.991294 2.522405,-0.991294 l 0,0 c -1.014354,0.814086 -5.291157,2.971783 -0.312304,0.164315 -0.03074,0.03022 -0.06497,0.05727 -0.09223,0.09067 -0.03037,0.0372 -0.03865,0.09514 -0.07974,0.119993 -1.099235,0.664774 -1.766106,1.211626 -2.816709,1.533132 -0.282188,0.09314 -0.501992,0.007 -0.679483,-0.236362 -0.128277,-0.219424 -0.184272,-0.49574 -0.392158,-0.653464 -0.40435,-0.20801 -0.853609,-0.05734 -1.274208,0.03435 -0.592426,0.155874 -1.192136,0.252799 -1.786012,0.399069 -0.562019,0.1872 -1.127113,0.34896 -1.705737,0.478704 -0.595439,0.10938 -1.199729,0.17205 -1.778316,0.362762 -0.478796,0.08249 -0.963266,0.139783 -1.443198,0.212301 -0.344157,0.01262 -0.687267,0.02934 -0.904802,-0.287718 -0.148909,-0.27927 -0.20093,-0.581413 -0.258693,-0.889942 -0.04302,-0.216479 0.0059,-0.530861 -0.154447,-0.695805 -0.373204,-0.01379 -0.721337,0.253271 -1.059681,0.37228 0.692087,-0.404564 1.380923,-0.814742 2.076261,-1.213693 0.07302,-0.0419 -0.136372,0.09917 -0.208738,0.142199 -1.146708,0.681784 -2.137123,1.39669 -3.361045,1.826209 -0.275262,0.130245 -0.543927,0.292638 -0.830055,0.398133 -0.144399,0.05324 -0.378414,0.09983 -0.523861,0.149182 -0.07847,0.02662 -0.153422,0.06265 -0.230133,0.09398 0.701601,-0.409369 1.4027,-0.819598 2.104803,-1.228106 0.06141,-0.03573 -0.121195,0.07422 -0.182716,0.109769 -0.830055,0.479566 -1.657344,0.964004 -2.491984,1.435545 -0.204381,0.115467 -0.447283,0.159932 -0.644291,0.29197 0.697512,-0.407033 1.390673,-0.821615 2.092536,-1.221097 0.06969,-0.03966 -0.125813,0.100295 -0.194894,0.141008 -1.095434,0.645596 -2.040507,1.367286 -3.228555,1.720563 -0.385076,0.140644 -0.639383,0.26466 -0.975173,-0.04865 -0.170638,-0.205852 -0.24842,-0.445797 -0.351029,-0.68748 -0.181677,-0.125583 -0.362043,0.05048 -0.539788,0.101896 -0.305181,0.100935 -0.624191,0.159752 -0.91338,0.307882 -0.293128,0.08665 -0.590337,0.147497 -0.896774,0.162504 -0.299371,-0.03625 -0.533161,-0.251848 -0.476023,-0.572036 0.104359,-0.279708 0.169725,-0.562843 0.228322,-0.857015 0.0036,-0.358652 0.01181,-0.717586 -0.0019,-1.076107 -0.01681,-0.22888 -0.0038,-0.544773 -0.294948,-0.570265 -0.484418,0.04053 -0.902091,0.288851 -1.331915,0.495993 -0.96558,0.450899 -0.347888,0.171629 1.795904,-1.073113 0.08828,-0.05126 -0.175778,0.103864 -0.264093,0.155066 -1.047334,0.607219 -2.045861,1.258182 -3.137,1.765509 -0.271432,0.120937 -0.55257,0.220678 -0.823085,0.342667 -0.09271,0.04181 -0.359739,0.189593 -0.27215,0.137912 1.014039,-0.598325 5.073101,-2.918241 -0.543453,0.299011 -0.533881,0.254477 -1.046783,0.555726 -1.602502,0.75892 -0.579621,0.182166 -1.155642,0.365101 -1.719031,0.594855 -0.545495,0.197406 -1.044909,0.49195 -1.60297,0.651628 -0.674506,0.153087 -1.367255,0.277489 -2.060127,0.28247 0,0 2.182458,-1.585648 2.182458,-1.585648 z"
       id="path3131"
       style="fill:#0000ff;fill-opacity:1;stroke:none" />
  </g>
</svg>
