<?xml version="1.0" encoding="UTF-8" standalone="no"?>
<!-- Created with Inkscape (http://www.inkscape.org/) -->

<svg
   xmlns:dc="http://purl.org/dc/elements/1.1/"
   xmlns:cc="http://creativecommons.org/ns#"
   xmlns:rdf="http://www.w3.org/1999/02/22-rdf-syntax-ns#"
   xmlns:svg="http://www.w3.org/2000/svg"
   xmlns="http://www.w3.org/2000/svg"
   version="1.1"
   width="64"
   height="64"
   id="svg3095">
  <defs
     id="defs3097" />
  <metadata
     id="metadata3100">
    <rdf:RDF>
      <cc:Work
         rdf:about="">
        <dc:format>image/svg+xml</dc:format>
        <dc:type
           rdf:resource="http://purl.org/dc/dcmitype/StillImage" />
        <dc:title></dc:title>
      </cc:Work>
    </rdf:RDF>
  </metadata>
  <g
     id="layer1">
    <path
       d="m 15.513031,19.535024 c 0.424192,-0.527821 0.968872,-0.898876 1.530781,-1.261676 0.440531,-0.276359 0.792283,-0.657736 1.209073,-0.964897 0.418537,-0.228761 0.722428,-0.631897 1.131712,-0.869728 0.852727,-0.495513 1.716183,-0.972327 2.574275,-1.45849 0.57064,-0.237901 1.128054,-0.505835 1.696825,-0.749447 -0.214169,0.09319 0.762944,-0.446395 0.570786,-0.337252 -6.841925,3.88612 5.678256,-3.273104 -1.238448,0.678204 7.101794,-4.076589 0.35616,-0.208194 0.535972,-0.309249 1.659064,-0.9324 2.158634,-1.330293 3.560761,-1.884726 0.328472,-0.201478 0.706038,-0.291028 1.05701,-0.437405 0.310459,-0.12948 0.618583,-0.296586 0.911944,-0.460581 0.669006,-0.285625 1.332085,-0.586274 2.002738,-0.869165 0.66607,-0.186558 1.290082,-0.480398 1.965771,-0.6341584 0.52206,-0.016 0.917512,-0.450264 1.410093,-0.227599 0.258795,0.221829 0.263836,0.5609144 0.337751,0.8693784 0.06162,0.250933 0.06617,0.543987 0.262054,0.733118 0.293681,0.137552 0.607963,0.215421 0.933009,0.212299 0.258124,-0.05022 0.544075,0.0014 0.799572,-0.05858 0.133181,-0.03129 0.252311,-0.106097 0.380731,-0.153261 0.566169,-0.171231 1.161218,-0.19563 1.747916,-0.224979 0.646002,-0.02198 1.292549,-0.02089 1.938846,-0.02012 0.482022,-0.02102 0.948804,-0.07715 1.432518,-0.04743 0.34961,0.02582 0.700012,0.03559 1.050431,0.04119 0.35984,0.0043 0.719714,0.004 1.079573,0.004 0.343354,0.01297 0.675669,0.110011 1.019534,0.14455 0.361679,-0.0068 0.703232,0.107508 1.056504,0.165048 0.163946,0.02428 0.329436,0.03293 0.494707,0.04203 0,0 -2.199077,1.573234 -2.199077,1.573234 l 0,0 c -0.171437,-0.01564 -0.343025,-0.03147 -0.51218,-0.06487 -0.346079,-0.06906 -0.689148,-0.141925 -1.043678,-0.15323 -0.334003,-0.0444 -0.662831,-0.136524 -1.002317,-0.118354 -0.361098,-3.85e-4 -0.722232,-6.06e-4 -1.083268,-0.0081 -0.351605,-0.009 -0.702784,-0.02599 -1.053848,-0.04742 -0.472093,-0.01508 -0.93746,0.0627 -1.409869,0.0467 -0.643449,10e-4 -1.287345,-0.0011 -1.930122,0.0327 -0.580301,0.03752 -1.164688,0.08915 -1.715229,0.290814 -0.402027,0.124395 -0.824762,0.141406 -1.24394,0.127906 -0.373199,-0.04945 -0.763859,-0.130617 -1.057871,-0.380852 -0.203109,-0.246947 -0.279374,-0.537491 -0.326203,-0.850082 -0.02445,-0.09896 -0.05555,-0.196494 -0.07347,-0.296838 -0.01887,-0.105664 0.0088,-0.277069 -0.114858,-0.322438 -0.448662,0.02223 -0.856832,0.294961 -1.308524,0.322312 -0.655126,0.185284 -1.288584,0.443931 -1.93279,0.662228 -0.665588,0.29421 -1.34211,0.565894 -1.99396,0.88933 -0.647501,0.324451 -1.324286,0.575686 -1.98282,0.876007 -0.29345,0.125681 -0.369698,0.156188 -0.659086,0.288645 -0.100731,0.04611 -0.395845,0.198164 -0.300958,0.140988 0.586019,-0.353115 5.590026,-3.239197 -0.564682,0.32264 -0.679554,0.39327 1.358142,-0.788207 2.037213,-1.18231 -0.853907,0.492684 -1.694422,1.009345 -2.561721,1.478054 -0.177467,0.09591 2.985298,-1.761349 1.746864,-1.021132 -0.846453,0.505928 -1.692016,1.013353 -2.539911,1.51686 -0.228098,0.135452 -0.346888,0.192684 -0.58364,0.315509 -0.564045,0.25702 -1.134732,0.498936 -1.696422,0.760732 0.675926,-0.398172 1.351853,-0.796344 2.027779,-1.194516 -0.08479,0.05019 -0.173479,0.09431 -0.254373,0.15056 -0.35772,0.248757 -0.108429,0.11574 -0.439942,0.398253 -0.102176,0.08707 -0.32265,0.221729 -0.439664,0.295887 -0.519138,0.448309 0.146803,-0.10608 -0.400887,0.28527 -0.270572,0.193338 -0.495426,0.54588 -0.804637,0.714221 -0.880591,0.511133 0.34959,-0.214458 -0.539207,0.349128 -0.09568,0.06067 -0.201984,0.103701 -0.296491,0.166188 -0.276549,0.182852 -0.498138,0.427466 -0.706054,0.682416 0,0 -2.492593,1.032466 -2.492593,1.032466 z"
       id="path3107"
       style="fill:#ff9955;fill-opacity:1;stroke:none" />
    <path
       d="m 17.140861,25.767967 c 0.374969,-0.218673 0.803576,-0.297372 1.205839,-0.440284 0.20155,-0.0716 0.391546,-0.172445 0.589628,-0.253147 0.268977,-0.181435 0.585361,-0.272778 0.871361,-0.416844 0.0873,-0.04397 0.164031,-0.106521 0.248747,-0.155277 0.249994,-0.143877 0.256845,-0.135288 0.525356,-0.241695 0.620209,-0.307341 1.28837,-0.492745 1.918307,-0.780037 0.731827,-0.313688 1.457321,-0.648962 2.161873,-1.020899 0.71291,-0.36797 1.445904,-0.68706 2.193791,-0.977189 0.458513,-0.262774 0.980227,-0.374251 1.45443,-0.599336 0.243313,-0.11549 0.47846,-0.247614 0.721119,-0.364473 0.740322,-0.289182 1.440464,-0.667696 2.190513,-0.931926 0.619215,-0.315503 1.218994,-0.6458 1.890746,-0.834734 0.330043,-0.02873 0.62203,-0.182745 0.933945,-0.277798 0.0987,-0.03008 0.202184,-0.0447 0.29873,-0.08111 0.175594,-0.06621 0.337505,-0.164385 0.509105,-0.240352 0.09065,-0.03098 0.18485,-0.05306 0.271948,-0.09296 0.08155,-0.03735 0.154196,-0.09169 0.231294,-0.13753 0.08093,-0.04024 0.159824,-0.08487 0.242799,-0.120706 0.27525,-0.118871 0.558564,-0.174919 0.851659,-0.22829 0.516734,-0.101036 0.91163,-0.09611 1.398891,0.09135 0.247409,0.193387 0.456567,0.44096 0.731517,0.59547 0.255006,0.21087 0.414335,0.51129 0.710109,0.676516 0.397427,0.107447 0.696636,0.364405 1.033185,0.582515 0.402945,0.189334 0.750265,0.420891 1.180453,0.551676 0.434476,0.125283 0.868087,0.225243 1.318172,0.274537 0.440899,0.05512 0.88823,-0.01132 1.318273,0.103571 0.211901,0.04249 0.417157,0.168305 0.636147,0.18059 0.190803,0.0107 0.439563,-0.07588 0.62701,-0.103286 0.308835,-0.06514 0.632298,-0.03724 0.942012,-0.08769 0.100797,-0.01642 0.195258,-0.06227 0.295984,-0.07912 0.149656,-0.02504 0.46056,-0.02369 0.611262,-0.02581 0.557981,-0.151641 1.127916,-0.225403 1.703064,-0.268696 0.219641,-0.02309 0.424275,-0.122445 0.642233,-0.152668 0.109855,-0.01523 0.222212,-2.13e-4 0.332509,-0.01182 0.251741,-0.0265 0.507094,-0.09963 0.755858,-0.147429 0.362188,-0.08596 0.709023,0.01107 1.052535,0.118441 0.2732,0.06162 0.515447,0.185759 0.708031,0.387842 0,0 -2.30728,1.418903 -2.30728,1.418903 l 0,0 c -0.179326,-0.153638 -0.407789,-0.220302 -0.633183,-0.279551 -0.322665,-0.08693 -0.643943,-0.103389 -0.971302,-0.02081 -0.577384,0.106024 -1.161128,0.165862 -1.736396,0.283686 -0.576618,0.05934 -1.139675,0.183776 -1.713177,0.259566 -0.615184,0.03997 -1.223566,0.160077 -1.837492,0.218691 -0.13806,0.01958 -0.332802,0.05441 -0.476538,0.04932 -0.29201,-0.01034 -0.559404,-0.144078 -0.842802,-0.198481 -0.434124,-0.05158 -0.875067,-0.01812 -1.308454,-0.08834 -0.458399,-0.06779 -0.904912,-0.180976 -1.347195,-0.319134 -0.429016,-0.158371 -0.819067,-0.394236 -1.220933,-0.609691 -0.33093,-0.226244 -0.666105,-0.41935 -1.036181,-0.577185 -0.26884,-0.195435 -0.456648,-0.466147 -0.713265,-0.671669 -0.240942,-0.169865 -0.442117,-0.391534 -0.694655,-0.544076 -0.427335,-0.131565 -0.865131,-0.07622 -1.296841,0.0177 -0.552771,0.141102 -1.043636,0.404713 -1.567592,0.623722 -0.564403,0.24522 -1.157457,0.417957 -1.752908,0.570755 -0.651264,0.226609 -1.241112,0.579033 -1.877405,0.842371 -0.735394,0.290451 -1.445121,0.641866 -2.173075,0.950455 -0.716247,0.350798 -1.458023,0.631521 -2.188903,0.949683 -0.739066,0.303233 -1.469129,0.622419 -2.176276,0.99539 -0.715689,0.356254 -1.437211,0.702699 -2.175535,1.009808 -0.642001,0.264897 -1.304044,0.480673 -1.927651,0.788678 -0.550286,0.265534 -1.085648,0.56222 -1.646979,0.80563 -0.60354,0.244216 -1.225623,0.441145 -1.835522,0.667573 0,0 2.149105,-1.634388 2.149105,-1.634388 z"
       id="path3109"
       style="fill:#ff2a2a;fill-opacity:1;stroke:none" />
    <path
       d="m 24.969731,40.794232 c 0.105403,0.0014 0.21115,0.0128 0.316209,0.0042 0.05654,-0.0046 0.619953,-0.112553 0.666286,-0.120888 0.350949,-0.06313 0.682604,-0.103024 1.021895,-0.214854 0.100335,-0.0327 0.204717,-0.05492 0.301005,-0.09811 0.173554,-0.07784 0.324356,-0.20017 0.495959,-0.282227 0.256972,-0.122881 0.533042,-0.19103 0.797311,-0.295959 0.08542,-0.02647 0.172775,-0.04734 0.256249,-0.07942 0.590418,-0.226867 -0.08623,-0.01399 0.544859,-0.227476 0.308676,-0.10442 0.614046,-0.156773 0.916161,-0.281445 0.09457,-0.03526 0.193337,-0.06087 0.283726,-0.105795 0.166051,-0.10735 0.299557,-0.200681 0.477586,-0.287914 0.271399,-0.132983 0.548869,-0.260888 0.826713,-0.380472 -5.313955,3.042917 0.350404,-0.217892 0.530287,-0.318778 0.286179,-0.160499 0.284409,-0.09357 0.587425,-0.214623 0.179992,-0.0719 0.34868,-0.1697 0.526691,-0.246378 -0.17679,0.06942 0.743622,-0.390264 0.562436,-0.284038 -4.752002,2.786006 -0.05749,-0.160349 1.047159,-0.559446 0.423494,-0.263516 0.907548,-0.488138 1.414354,-0.40954 0.374745,0.161042 0.455421,0.529525 0.498158,0.8975 0.02576,0.366798 0.01671,0.734937 0.01322,1.102318 -0.02736,0.315399 -0.08461,0.63347 -0.18439,0.934471 -0.09751,0.26093 0.05511,0.158974 0.207491,0.110995 0.293321,-0.03995 0.574492,-0.08715 0.837839,-0.227668 0.195721,-0.12198 0.428697,-0.125758 0.64226,-0.186936 0.09699,-0.02778 0.186857,-0.07636 0.282026,-0.109835 0.246605,-0.209489 0.526891,-0.07098 0.714711,0.140127 0.15003,0.222041 0.162933,0.512798 0.357829,0.704197 0.177836,0.109617 0.235565,0.02109 0.387337,-0.06121 0.07578,-0.04109 0.322473,-0.119531 0.396954,-0.144501 -0.179298,0.206577 0.975646,-0.439588 0.691174,-0.273942 -0.694879,0.404623 -1.396406,0.797799 -2.099317,1.188302 -0.06896,0.03831 0.128862,-0.09137 0.196849,-0.131385 0.834156,-0.490956 1.672818,-0.974213 2.509227,-1.46132 0.442874,-0.152852 0.04964,-0.0083 0.45984,-0.183272 0.0688,-0.02935 0.273399,-0.119898 0.20882,-0.08215 -0.70825,0.413952 -1.42616,0.811177 -2.141924,1.211998 -0.06248,0.03499 0.119638,-0.07891 0.18185,-0.114374 0.838471,-0.477944 1.680006,-0.95049 2.52001,-1.425736 0.08257,-0.02225 0.164242,-0.04818 0.247721,-0.06675 0.09138,-0.02033 0.186461,-0.02386 0.276399,-0.04985 0.234788,-0.06786 0.274142,-0.129465 0.487879,-0.249452 0.260622,-0.146308 0.287848,-0.147199 0.567559,-0.261628 0.423055,-0.130025 0.207522,-0.04514 0.589769,-0.233195 0.08473,-0.04168 0.336492,-0.171177 0.254681,-0.124027 -0.694284,0.400134 -1.390944,0.796267 -2.092625,1.183284 -0.07362,0.04061 0.134927,-0.100939 0.207439,-0.143496 0.838892,-0.492348 1.684079,-0.97389 2.526118,-1.460835 0.442078,-0.115389 0.780501,-0.461336 1.21832,-0.188269 0.252952,0.253951 0.239861,0.601847 0.28923,0.931212 0.0598,0.276215 0.08449,0.561398 0.219781,0.813629 0.02334,0.02225 0.04087,0.05295 0.07001,0.06674 0.09836,0.04653 0.546067,-0.02374 0.663369,-0.02909 0.458136,-0.148433 0.946562,-0.10528 1.402756,-0.247156 0.570388,-0.224497 1.196013,-0.190473 1.775573,-0.359914 0.281419,-0.118133 0.595154,-0.125695 0.884533,-0.208165 0.273432,-0.07792 0.535902,-0.206074 0.810875,-0.28665 0.301661,-0.103834 0.627753,-0.08698 0.936034,-0.147844 0.287082,-0.05668 0.572529,-0.169656 0.858263,-0.238472 0.352677,-0.05294 0.735162,-0.183399 1.089382,-0.06042 0.08168,0.02836 0.243786,0.135722 0.320729,0.184268 0.24634,0.196028 0.311973,0.511576 0.46721,0.770555 0.160999,0.181295 0.299761,-0.0111 0.476094,-0.06933 0.82877,-0.246827 2.674516,-1.454547 -1.850096,1.11087 -0.07209,0.04087 0.135428,-0.0969 0.19381,-0.155713 8.056725,-4.711779 -1.541721,0.861252 0.293507,-0.209347 0,0 2.522405,-0.991294 2.522405,-0.991294 l 0,0 c -1.014354,0.814086 -5.291157,2.971783 -0.312304,0.164315 -0.03074,0.03022 -0.06497,0.05727 -0.09223,0.09067 -0.03037,0.0372 -0.03865,0.09514 -0.07974,0.119993 -1.099235,0.664774 -1.766106,1.211626 -2.816709,1.533132 -0.282188,0.09314 -0.501992,0.007 -0.679483,-0.236362 -0.128277,-0.219424 -0.184272,-0.49574 -0.392158,-0.653464 -0.40435,-0.20801 -0.853609,-0.05734 -1.274208,0.03435 -0.592426,0.155874 -1.192136,0.252799 -1.786012,0.399069 -0.562019,0.1872 -1.127113,0.34896 -1.705737,0.478704 -0.595439,0.10938 -1.199729,0.17205 -1.778316,0.362762 -0.478796,0.08249 -0.963266,0.139783 -1.443198,0.212301 -0.344157,0.01262 -0.687267,0.02934 -0.904802,-0.287718 -0.148909,-0.27927 -0.20093,-0.581413 -0.258693,-0.889942 -0.04302,-0.216479 0.0059,-0.530861 -0.154447,-0.695805 -0.373204,-0.01379 -0.721337,0.253271 -1.059681,0.37228 0.692087,-0.404564 1.380923,-0.814742 2.076261,-1.213693 0.07302,-0.0419 -0.136372,0.09917 -0.208738,0.142199 -1.146708,0.681784 -2.137123,1.39669 -3.361045,1.826209 -0.275262,0.130245 -0.543927,0.292638 -0.830055,0.398133 -0.144399,0.05324 -0.378414,0.09983 -0.523861,0.149182 -0.07847,0.02662 -0.153422,0.06265 -0.230133,0.09398 0.701601,-0.409369 1.4027,-0.819598 2.104803,-1.228106 0.06141,-0.03573 -0.121195,0.07422 -0.182716,0.109769 -0.830055,0.479566 -1.657344,0.964004 -2.491984,1.435545 -0.204381,0.115467 -0.447283,0.159932 -0.644291,0.29197 0.697512,-0.407033 1.390673,-0.821615 2.092536,-1.221097 0.06969,-0.03966 -0.125813,0.100295 -0.194894,0.141008 -1.095434,0.645596 -2.040507,1.367286 -3.228555,1.720563 -0.385076,0.140644 -0.639383,0.26466 -0.975173,-0.04865 -0.170638,-0.205852 -0.24842,-0.445797 -0.351029,-0.68748 -0.181677,-0.125583 -0.362043,0.05048 -0.539788,0.101896 -0.305181,0.100935 -0.624191,0.159752 -0.91338,0.307882 -0.293128,0.08665 -0.590337,0.147497 -0.896774,0.162504 -0.299371,-0.03625 -0.533161,-0.251848 -0.476023,-0.572036 0.104359,-0.279708 0.169725,-0.562843 0.228322,-0.857015 0.0036,-0.358652 0.01181,-0.717586 -0.0019,-1.076107 -0.01681,-0.22888 -0.0038,-0.544773 -0.294948,-0.570265 -0.484418,0.04053 -0.902091,0.288851 -1.331915,0.495993 -0.96558,0.450899 -0.347888,0.171629 1.795904,-1.073113 0.08828,-0.05126 -0.175778,0.103864 -0.264093,0.155066 -1.047334,0.607219 -2.045861,1.258182 -3.137,1.765509 -0.271432,0.120937 -0.55257,0.220678 -0.823085,0.342667 -0.09271,0.04181 -0.359739,0.189593 -0.27215,0.137912 1.014039,-0.598325 5.073101,-2.918241 -0.543453,0.299011 -0.533881,0.254477 -1.046783,0.555726 -1.602502,0.75892 -0.579621,0.182166 -1.155642,0.365101 -1.719031,0.594855 -0.545495,0.197406 -1.044909,0.49195 -1.60297,0.651628 -0.674506,0.153087 -1.367255,0.277489 -2.060127,0.28247 0,0 2.182458,-1.585648 2.182458,-1.585648 z"
       id="path3131"
       style="fill:#0000ff;fill-opacity:1;stroke:none" />
    <path
       d="M 14.732261,30.732261 27.301637,52.793162"
       id="path2992"
       style="fill:none;stroke:#000000;stroke-width:0.63401437px;stroke-linecap:butt;stroke-linejoin:miter;stroke-opacity:1" />
    <path
       d="M 8.0666906,53.492631 28.272294,28.405673"
       id="path2994"
       style="fill:none;stroke:#000000;stroke-width:0.86219442px;stroke-linecap:butt;stroke-linejoin:miter;stroke-opacity:1" />
  </g>
</svg>
