<?xml version="1.0" encoding="UTF-8" standalone="no"?>
<!-- Created with Inkscape (http://www.inkscape.org/) -->

<svg
   xmlns:dc="http://purl.org/dc/elements/1.1/"
   xmlns:cc="http://creativecommons.org/ns#"
   xmlns:rdf="http://www.w3.org/1999/02/22-rdf-syntax-ns#"
   xmlns:svg="http://www.w3.org/2000/svg"
   xmlns="http://www.w3.org/2000/svg"
   version="1.1"
   width="64"
   height="64"
   id="svg2">
  <defs
     id="defs4" />
  <metadata
     id="metadata7">
    <rdf:RDF>
      <cc:Work
         rdf:about="">
        <dc:format>image/svg+xml</dc:format>
        <dc:type
           rdf:resource="http://purl.org/dc/dcmitype/StillImage" />
        <dc:title></dc:title>
      </cc:Work>
    </rdf:RDF>
  </metadata>
  <g
     transform="translate(0,-988.36218)"
     id="layer1">
    <path
       d="m 10.176177,14.226107 c 0.396056,-0.08632 0.812235,-0.126966 1.195826,-0.264969 0.04245,-0.01527 0.426454,-0.214646 0.475335,-0.239827 0.07063,-0.03311 0.279303,-0.138586 0.211893,-0.09933 -5.0284292,2.928106 -0.162272,0.07593 0.485246,-0.276996 0.723679,-0.394437 -1.429539,0.820725 -2.145468,1.229061 -0.04204,0.02398 0.0825,-0.05064 0.123755,-0.07596 0.263122,-2.102715 2.148162,-0.904919 3.071546,-1.604959 0.788532,-0.432934 1.267255,-0.696778 -2.057017,1.187333 -0.03713,0.02105 0.06533,-0.0556 0.102087,-0.0773 1.105919,-0.652615 1.637675,-1.267313 2.669431,-1.455709 0.307244,-0.0029 0.541568,0.176783 0.800779,0.312937 0.235767,0.180232 0.436632,0.409426 0.621943,0.640982 0.105149,0.145086 0.257193,0.159028 0.411257,0.212507 0.08866,0.03078 0.171912,0.07556 0.259676,0.108815 0.272733,0.05588 0.477043,0.252804 0.724663,0.363868 0.214946,0.161974 0.473938,0.236865 0.719196,0.340168 0.280856,0.05578 0.54741,0.151037 0.824422,0.222356 0.280882,0.05591 0.543062,0.179855 0.801296,0.300202 0.277082,0.108477 0.577321,0.118644 0.870964,0.130671 0.307913,-0.0042 0.605876,-0.10331 0.914184,-0.138726 0.318282,-0.132817 0.668435,-0.164358 1.009132,-0.192163 0.142972,-0.06672 0.309915,-0.07034 0.455939,-0.123852 0.701983,-0.257265 3.329612,-1.871739 -1.923742,1.112521 1.505705,-0.889821 4.835778,-2.758346 0.338895,-0.196613 -0.03796,0.02162 0.07203,-0.04962 0.109959,-0.07129 0.799855,-0.456918 1.59009,-0.931483 2.403208,-1.36436 0.735551,-0.391584 -1.446945,0.826953 -2.170417,1.240429 1.101642,-0.975962 1.848161,-1.138031 2.909315,-1.570944 0,0 -2.088101,1.647878 -2.088101,1.647878 l 0,0 c -0.902003,0.390374 -2.331335,0.933187 1.661399,-1.034467 -3.947126,2.265894 -2.437315,1.402748 -0.232802,0.123931 0.03729,-0.02163 -0.07597,0.04079 -0.113271,0.06239 -0.795883,0.460895 -1.593773,0.918371 -2.386258,1.385084 -0.679623,0.400245 3.017901,-1.777885 2.049142,-1.183116 -1.059788,0.607028 -1.946853,1.405894 -3.143764,1.554517 -0.341285,0.04386 -0.671126,0.12861 -1.006156,0.201672 -0.313479,0.05243 -0.623751,0.137828 -0.944626,0.09485 -0.319562,-0.02588 -0.639762,-0.06642 -0.931262,-0.209961 -0.248307,-0.115431 -0.509539,-0.202592 -0.776072,-0.265295 -0.281711,-0.08543 -0.570967,-0.143321 -0.845173,-0.250897 -0.248083,-0.10899 -0.505373,-0.195764 -0.728881,-0.354022 -0.230259,-0.129107 -0.450211,-0.275368 -0.709794,-0.342772 -0.272267,-0.109811 -0.557858,-0.191164 -0.744695,-0.4365 -0.167561,-0.201465 -0.33803,-0.415112 -0.563882,-0.552595 -0.219768,-0.11869 -0.42932,-0.23992 -0.683708,-0.146666 -0.08438,0.03346 -0.32428,0.162777 -0.24595,0.116906 4.59242,-2.689392 0.916574,-0.518144 -0.434815,0.274579 -0.966251,0.33893 -2.5551511,0.857253 1.483978,-1.015732 -1.017672,0.556898 1.403463,-0.769285 -2.533561,1.459505 -0.7118,0.402958 1.415635,-0.819828 2.123452,-1.229742 -0.053,0.03095 -0.105757,0.06231 -0.158984,0.09286 -0.81556,0.468117 -1.628814,0.940288 -2.4473713,1.403143 -0.066906,0.03783 -0.1389631,0.06573 -0.2084447,0.09859 -0.5468774,0.241826 -1.1317927,0.340955 -1.7144305,0.462197 0,0 2.1107275,-1.605202 2.1107275,-1.605202 z"
       transform="translate(0,988.36218)"
       id="path2987"
       style="fill:#0000ff;fill-opacity:1;stroke:none" />
    <path
       d="m 26.385153,12.19324 c 0.08504,-0.03685 0.172038,-0.06949 0.255134,-0.110547 0.09019,-0.04456 0.175294,-0.0988 0.264128,-0.146014 0.08789,-0.04671 0.352017,-0.185764 0.265973,-0.135727 -0.674118,0.39202 -1.352791,0.776163 -2.030539,1.161875 -0.06946,0.03953 0.136316,-0.08353 0.205641,-0.12331 0.819105,-0.469971 1.639739,-0.937272 2.459609,-1.405908 -0.702611,0.402922 -1.404496,0.807112 -2.107833,1.208766 -0.04953,0.02829 0.0968,-0.06044 0.14638,-0.08864 0.807123,-0.459131 1.60195,-0.940876 2.423673,-1.373332 0.73151,-0.384978 -2.860821,1.6576 -2.152884,1.230821 2.173699,-1.31041 1.541743,-1.08137 2.534958,-1.426505 0.09666,-0.10556 0.238612,-0.119265 0.357872,-0.178931 0.125472,-0.06277 0.216849,-0.13119 0.354373,-0.176714 0.30719,-0.01069 0.502235,0.213201 0.624902,0.469077 0.07526,0.292345 0.161592,0.583326 0.224043,0.879267 0.05723,0.337442 0.08251,0.681286 0.06552,1.02313 -0.04318,0.285924 -0.124485,0.562295 -0.09813,0.853009 0.04914,0.231256 0.20752,0.360161 0.396001,0.484182 0.188881,0.207126 0.433076,0.257368 0.699172,0.289542 0.24514,-0.04903 0.501239,-0.15361 0.700648,-0.306962 0.813826,-0.438819 0.852533,-0.461102 -2.053284,1.187647 -0.03765,0.02136 0.06875,-0.05264 0.103698,-0.07819 0.104807,-0.07663 0.199195,-0.161003 0.299682,-0.24334 0.838944,-0.571149 1.644911,-0.96721 2.610132,-1.518114 0.723694,-0.413051 -2.876725,1.682644 -2.168999,1.242794 2.05412,-1.276629 1.537319,-1.092769 2.521992,-1.424694 0.301321,-0.02967 0.579782,-0.127051 0.872691,-0.193807 0.362725,-0.0036 0.488771,0.318196 0.555937,0.621595 0.05092,0.347527 0.0444,0.700207 0.04388,1.050525 0.0044,0.366435 -0.06439,0.730811 -0.138837,1.08843 -0.08466,0.290661 -0.15554,0.583016 -0.273201,0.862462 -0.159584,0.247679 -0.291135,0.510099 -0.434148,0.767032 -0.106932,0.254804 -0.252381,0.485834 -0.401271,0.716906 -0.134138,0.224556 -0.262089,0.452096 -0.383726,0.683808 -0.119984,0.282297 -0.203936,0.577526 -0.314636,0.863183 -0.105903,0.286412 -0.165772,0.585665 -0.255468,0.877437 -0.09031,0.29867 -0.09064,0.612212 -0.156942,0.915502 -0.06052,0.286172 -0.180533,0.552884 -0.267261,0.831539 -0.06984,0.205526 -0.129779,0.413263 -0.210303,0.614971 0,0 -2.412704,1.114382 -2.412704,1.114382 l 0,0 c 0.0822,-0.199297 0.169583,-0.390555 0.216499,-0.602689 0.05431,-0.140625 0.08018,-0.284952 0.132791,-0.425809 0.0304,-0.08141 0.08307,-0.153483 0.11188,-0.235467 0.01661,-0.04728 0.02152,-0.09788 0.03228,-0.146824 0.08221,-0.305486 0.09776,-0.612839 0.152655,-0.924429 0.07861,-0.302544 0.181901,-0.594413 0.246012,-0.9011 0.11286,-0.288328 0.213414,-0.578291 0.307411,-0.871378 0.08697,-0.241087 0.23163,-0.491376 0.375035,-0.7023 0.111626,-0.255086 0.321033,-0.44734 0.40296,-0.71795 0.133852,-0.263633 0.266703,-0.525643 0.428854,-0.773655 0.183103,-0.234078 0.208886,-0.529728 0.304846,-0.80399 0.115214,-0.321891 0.146965,-0.687373 0.172083,-1.025779 0.0014,-0.33424 0.0078,-0.669661 -0.02449,-1.002756 -0.03953,-0.252605 -0.04598,-0.340737 -0.321466,-0.258004 -0.282372,0.07922 -0.577905,0.108956 -0.846767,0.229636 -0.843478,0.470083 -0.154643,0.08703 2.044959,-1.187084 -0.641544,0.355183 -5.420866,3.143626 -0.231482,0.124058 0.07431,-0.04324 -0.308329,0.166722 -0.210567,0.14895 -0.169288,0.07705 -0.256684,0.207949 -0.411529,0.300079 -2.11131,1.256191 -1.588884,0.958389 -2.488213,1.469526 -0.265228,0.106885 -0.512865,0.227545 -0.808468,0.158299 -0.292004,-0.06587 -0.55062,-0.177116 -0.769309,-0.388007 -0.233151,-0.183098 -0.425947,-0.37691 -0.503887,-0.673624 -0.04715,-0.3113 -0.01646,-0.607825 0.07108,-0.911331 0.06397,-0.310318 0.0043,-0.636079 -0.02744,-0.948178 -0.05234,-0.277931 -0.145894,-0.544308 -0.196866,-0.822084 -0.08179,-0.185127 -0.216035,-0.235692 -0.39625,-0.131181 -0.234931,0.122907 -0.470609,0.243334 -0.709378,0.358195 -0.84991,0.459718 -0.160672,0.08838 2.031585,-1.178621 -0.815836,0.434767 -1.589085,0.946648 -2.406111,1.379176 -0.725897,0.384285 1.422256,-0.821948 2.132553,-1.234355 0.04975,-0.02888 -0.100588,0.05585 -0.150882,0.08377 -0.810568,0.468933 -1.621136,0.937867 -2.431704,1.406801 4.746677,-2.754806 0.166549,-0.02325 -1.425943,0.757881 0,0 2.071399,-1.656924 2.071399,-1.656924 z"
       transform="translate(0,988.36218)"
       id="path3012"
       style="fill:#0000ff;fill-opacity:1;stroke:none" />
  </g>
</svg>
