<?xml version="1.0" encoding="UTF-8" standalone="no"?>
<!-- Created with Inkscape (http://www.inkscape.org/) -->

<svg
   xmlns:dc="http://purl.org/dc/elements/1.1/"
   xmlns:cc="http://creativecommons.org/ns#"
   xmlns:rdf="http://www.w3.org/1999/02/22-rdf-syntax-ns#"
   xmlns:svg="http://www.w3.org/2000/svg"
   xmlns="http://www.w3.org/2000/svg"
   version="1.1"
   width="64"
   height="64"
   id="svg2">
  <defs
     id="defs4" />
  <metadata
     id="metadata7">
    <rdf:RDF>
      <cc:Work
         rdf:about="">
        <dc:format>image/svg+xml</dc:format>
        <dc:type
           rdf:resource="http://purl.org/dc/dcmitype/StillImage" />
        <dc:title></dc:title>
      </cc:Work>
    </rdf:RDF>
  </metadata>
  <g
     transform="translate(0,-988.36218)"
     id="layer1">
    <path
       d="m 10.176177,14.226107 c 0.396056,-0.08632 0.812235,-0.126966 1.195826,-0.264969 0.04245,-0.01527 0.426454,-0.214646 0.475335,-0.239827 0.07063,-0.03311 0.279303,-0.138586 0.211893,-0.09933 -5.0284292,2.928106 -0.162272,0.07593 0.485246,-0.276996 0.723679,-0.394437 -1.429539,0.820725 -2.145468,1.229061 -0.04204,0.02398 0.0825,-0.05064 0.123755,-0.07596 0.263122,-2.102715 2.148162,-0.904919 3.071546,-1.604959 0.788532,-0.432934 1.267255,-0.696778 -2.057017,1.187333 -0.03713,0.02105 0.06533,-0.0556 0.102087,-0.0773 1.105919,-0.652615 1.637675,-1.267313 2.669431,-1.455709 0.307244,-0.0029 0.541568,0.176783 0.800779,0.312937 0.235767,0.180232 0.436632,0.409426 0.621943,0.640982 0.105149,0.145086 0.257193,0.159028 0.411257,0.212507 0.08866,0.03078 0.171912,0.07556 0.259676,0.108815 0.272733,0.05588 0.477043,0.252804 0.724663,0.363868 0.214946,0.161974 0.473938,0.236865 0.719196,0.340168 0.280856,0.05578 0.54741,0.151037 0.824422,0.222356 0.280882,0.05591 0.543062,0.179855 0.801296,0.300202 0.277082,0.108477 0.577321,0.118644 0.870964,0.130671 0.307913,-0.0042 0.605876,-0.10331 0.914184,-0.138726 0.318282,-0.132817 0.668435,-0.164358 1.009132,-0.192163 0.142972,-0.06672 0.309915,-0.07034 0.455939,-0.123852 0.701983,-0.257265 3.329612,-1.871739 -1.923742,1.112521 1.505705,-0.889821 4.835778,-2.758346 0.338895,-0.196613 -0.03796,0.02162 0.07203,-0.04962 0.109959,-0.07129 0.799855,-0.456918 1.59009,-0.931483 2.403208,-1.36436 0.735551,-0.391584 -1.446945,0.826953 -2.170417,1.240429 1.101642,-0.975962 1.848161,-1.138031 2.909315,-1.570944 0,0 -2.088101,1.647878 -2.088101,1.647878 l 0,0 c -0.902003,0.390374 -2.331335,0.933187 1.661399,-1.034467 -3.947126,2.265894 -2.437315,1.402748 -0.232802,0.123931 0.03729,-0.02163 -0.07597,0.04079 -0.113271,0.06239 -0.795883,0.460895 -1.593773,0.918371 -2.386258,1.385084 -0.679623,0.400245 3.017901,-1.777885 2.049142,-1.183116 -1.059788,0.607028 -1.946853,1.405894 -3.143764,1.554517 -0.341285,0.04386 -0.671126,0.12861 -1.006156,0.201672 -0.313479,0.05243 -0.623751,0.137828 -0.944626,0.09485 -0.319562,-0.02588 -0.639762,-0.06642 -0.931262,-0.209961 -0.248307,-0.115431 -0.509539,-0.202592 -0.776072,-0.265295 -0.281711,-0.08543 -0.570967,-0.143321 -0.845173,-0.250897 -0.248083,-0.10899 -0.505373,-0.195764 -0.728881,-0.354022 -0.230259,-0.129107 -0.450211,-0.275368 -0.709794,-0.342772 -0.272267,-0.109811 -0.557858,-0.191164 -0.744695,-0.4365 -0.167561,-0.201465 -0.33803,-0.415112 -0.563882,-0.552595 -0.219768,-0.11869 -0.42932,-0.23992 -0.683708,-0.146666 -0.08438,0.03346 -0.32428,0.162777 -0.24595,0.116906 4.59242,-2.689392 0.916574,-0.518144 -0.434815,0.274579 -0.966251,0.33893 -2.5551511,0.857253 1.483978,-1.015732 -1.017672,0.556898 1.403463,-0.769285 -2.533561,1.459505 -0.7118,0.402958 1.415635,-0.819828 2.123452,-1.229742 -0.053,0.03095 -0.105757,0.06231 -0.158984,0.09286 -0.81556,0.468117 -1.628814,0.940288 -2.4473713,1.403143 -0.066906,0.03783 -0.1389631,0.06573 -0.2084447,0.09859 -0.5468774,0.241826 -1.1317927,0.340955 -1.7144305,0.462197 0,0 2.1107275,-1.605202 2.1107275,-1.605202 z"
       transform="translate(0,988.36218)"
       id="path2987"
       style="fill:#0000ff;fill-opacity:1;stroke:none" />
    <path
       d="m 26.385153,12.19324 c 0.08504,-0.03685 0.172038,-0.06949 0.255134,-0.110547 0.09019,-0.04456 0.175294,-0.0988 0.264128,-0.146014 0.08789,-0.04671 0.352017,-0.185764 0.265973,-0.135727 -0.674118,0.39202 -1.352791,0.776163 -2.030539,1.161875 -0.06946,0.03953 0.136316,-0.08353 0.205641,-0.12331 0.819105,-0.469971 1.639739,-0.937272 2.459609,-1.405908 -0.702611,0.402922 -1.404496,0.807112 -2.107833,1.208766 -0.04953,0.02829 0.0968,-0.06044 0.14638,-0.08864 0.807123,-0.459131 1.60195,-0.940876 2.423673,-1.373332 0.73151,-0.384978 -2.860821,1.6576 -2.152884,1.230821 2.173699,-1.31041 1.541743,-1.08137 2.534958,-1.426505 0.09666,-0.10556 0.238612,-0.119265 0.357872,-0.178931 0.125472,-0.06277 0.216849,-0.13119 0.354373,-0.176714 0.30719,-0.01069 0.502235,0.213201 0.624902,0.469077 0.07526,0.292345 0.161592,0.583326 0.224043,0.879267 0.05723,0.337442 0.08251,0.681286 0.06552,1.02313 -0.04318,0.285924 -0.124485,0.562295 -0.09813,0.853009 0.04914,0.231256 0.20752,0.360161 0.396001,0.484182 0.188881,0.207126 0.433076,0.257368 0.699172,0.289542 0.24514,-0.04903 0.501239,-0.15361 0.700648,-0.306962 0.813826,-0.438819 0.852533,-0.461102 -2.053284,1.187647 -0.03765,0.02136 0.06875,-0.05264 0.103698,-0.07819 0.104807,-0.07663 0.199195,-0.161003 0.299682,-0.24334 0.838944,-0.571149 1.644911,-0.96721 2.610132,-1.518114 0.723694,-0.413051 -2.876725,1.682644 -2.168999,1.242794 2.05412,-1.276629 1.537319,-1.092769 2.521992,-1.424694 0.301321,-0.02967 0.579782,-0.127051 0.872691,-0.193807 0.362725,-0.0036 0.488771,0.318196 0.555937,0.621595 0.05092,0.347527 0.0444,0.700207 0.04388,1.050525 0.0044,0.366435 -0.06439,0.730811 -0.138837,1.08843 -0.08466,0.290661 -0.15554,0.583016 -0.273201,0.862462 -0.159584,0.247679 -0.291135,0.510099 -0.434148,0.767032 -0.106932,0.254804 -0.252381,0.485834 -0.401271,0.716906 -0.134138,0.224556 -0.262089,0.452096 -0.383726,0.683808 -0.119984,0.282297 -0.203936,0.577526 -0.314636,0.863183 -0.105903,0.286412 -0.165772,0.585665 -0.255468,0.877437 -0.09031,0.29867 -0.09064,0.612212 -0.156942,0.915502 -0.06052,0.286172 -0.180533,0.552884 -0.267261,0.831539 -0.06984,0.205526 -0.129779,0.413263 -0.210303,0.614971 0,0 -2.412704,1.114382 -2.412704,1.114382 l 0,0 c 0.0822,-0.199297 0.169583,-0.390555 0.216499,-0.602689 0.05431,-0.140625 0.08018,-0.284952 0.132791,-0.425809 0.0304,-0.08141 0.08307,-0.153483 0.11188,-0.235467 0.01661,-0.04728 0.02152,-0.09788 0.03228,-0.146824 0.08221,-0.305486 0.09776,-0.612839 0.152655,-0.924429 0.07861,-0.302544 0.181901,-0.594413 0.246012,-0.9011 0.11286,-0.288328 0.213414,-0.578291 0.307411,-0.871378 0.08697,-0.241087 0.23163,-0.491376 0.375035,-0.7023 0.111626,-0.255086 0.321033,-0.44734 0.40296,-0.71795 0.133852,-0.263633 0.266703,-0.525643 0.428854,-0.773655 0.183103,-0.234078 0.208886,-0.529728 0.304846,-0.80399 0.115214,-0.321891 0.146965,-0.687373 0.172083,-1.025779 0.0014,-0.33424 0.0078,-0.669661 -0.02449,-1.002756 -0.03953,-0.252605 -0.04598,-0.340737 -0.321466,-0.258004 -0.282372,0.07922 -0.577905,0.108956 -0.846767,0.229636 -0.843478,0.470083 -0.154643,0.08703 2.044959,-1.187084 -0.641544,0.355183 -5.420866,3.143626 -0.231482,0.124058 0.07431,-0.04324 -0.308329,0.166722 -0.210567,0.14895 -0.169288,0.07705 -0.256684,0.207949 -0.411529,0.300079 -2.11131,1.256191 -1.588884,0.958389 -2.488213,1.469526 -0.265228,0.106885 -0.512865,0.227545 -0.808468,0.158299 -0.292004,-0.06587 -0.55062,-0.177116 -0.769309,-0.388007 -0.233151,-0.183098 -0.425947,-0.37691 -0.503887,-0.673624 -0.04715,-0.3113 -0.01646,-0.607825 0.07108,-0.911331 0.06397,-0.310318 0.0043,-0.636079 -0.02744,-0.948178 -0.05234,-0.277931 -0.145894,-0.544308 -0.196866,-0.822084 -0.08179,-0.185127 -0.216035,-0.235692 -0.39625,-0.131181 -0.234931,0.122907 -0.470609,0.243334 -0.709378,0.358195 -0.84991,0.459718 -0.160672,0.08838 2.031585,-1.178621 -0.815836,0.434767 -1.589085,0.946648 -2.406111,1.379176 -0.725897,0.384285 1.422256,-0.821948 2.132553,-1.234355 0.04975,-0.02888 -0.100588,0.05585 -0.150882,0.08377 -0.810568,0.468933 -1.621136,0.937867 -2.431704,1.406801 4.746677,-2.754806 0.166549,-0.02325 -1.425943,0.757881 0,0 2.071399,-1.656924 2.071399,-1.656924 z"
       transform="translate(0,988.36218)"
       id="path3012"
       style="fill:#0000ff;fill-opacity:1;stroke:none" />
    <path
       d="m 30.514281,22.402975 c 0.419962,-0.424255 0.763366,-0.91029 1.181669,-1.33582 0.237632,-0.247501 0.521666,-0.448211 0.732479,-0.720106 0.152284,-0.20712 0.322389,-0.398905 0.486793,-0.596079 0.189257,-0.17382 0.307614,-0.404762 0.471972,-0.599942 0.239796,-0.164164 0.410487,-0.378218 0.5928,-0.59886 0.197904,-0.233125 0.399924,-0.465498 0.62489,-0.673036 0.285323,-0.161137 0.384298,-0.466386 0.524937,-0.743672 0.221578,-0.289391 0.397847,-0.609641 0.611288,-0.903647 0.27361,-0.259814 0.52602,-0.540538 0.791079,-0.808749 0.181614,-0.203344 0.394218,-0.376653 0.548386,-0.60262 0.153325,-0.208044 0.291234,-0.427936 0.499981,-0.584716 0.195762,-0.183903 0.391387,-0.366779 0.576698,-0.562181 0.167311,-0.223859 0.36988,-0.404942 0.583278,-0.581399 0.688382,-0.783895 1.464231,-0.872448 2.573455,-1.581221 0.701949,-0.448531 -2.886462,1.66459 -2.166699,1.245241 0.79516,-0.463278 1.594846,-0.918746 2.392896,-1.377028 0.723552,-0.415501 -1.446267,0.832457 -2.169401,1.248685 0.86546,-0.613056 -0.103515,0.06832 2.500765,-1.452059 0.719962,-0.420314 -1.444869,0.83211 -2.169011,1.245181 -0.03805,0.02171 0.07237,-0.04961 0.110599,-0.07101 2.421171,-1.355143 1.552,-1.682876 2.510584,-1.281765 0.244059,0.203153 0.194183,0.469848 0.164237,0.750001 -0.0566,0.293682 -0.147214,0.576558 -0.190328,0.8736 -0.06362,0.297937 -0.133341,0.594032 -0.194512,0.892826 -0.04149,0.15141 -0.09159,0.301459 -0.103952,0.459019 -0.0031,0.03949 -0.0035,0.155368 0.01055,0.118349 0.0061,-0.01595 7.7e-5,-0.03414 1.16e-4,-0.0512 0.0072,-0.02114 0.0054,-0.04812 0.02163,-0.06343 0.03616,-0.034 0.153063,-0.03614 0.18727,-0.04972 0.108834,-0.04319 0.229957,-0.123011 0.329523,-0.185139 0.475879,-0.216189 -0.208993,0.08923 0.296624,-0.116629 0.05299,-0.02157 0.204482,-0.102445 0.154918,-0.07387 -0.709336,0.408917 -1.422082,0.811897 -2.134654,1.215148 -0.04795,0.02713 0.09295,-0.05923 0.140686,-0.08674 0.804992,-0.46396 1.611615,-0.925088 2.417422,-1.387632 0.09949,-0.05601 0.215965,-0.05201 0.321054,-0.0875 0.04695,-0.01586 0.177035,-0.0889 0.134032,-0.06428 -3.745239,2.14382 -2.709106,1.595383 -1.95464,1.088517 0.749035,-0.699714 1.59994,-0.96923 2.600144,-1.543303 0.261713,-0.150212 -0.05074,9.79e-4 0.229736,-0.12787 0,0 -2.076504,1.663288 -2.076504,1.663288 l 0,0 c -1.285569,0.720213 2.924718,-1.789418 1.709398,-0.999817 -0.08635,0.103838 -0.08046,0.115435 -0.198268,0.183707 -1.133281,0.65677 -1.80648,1.135627 -2.835652,1.551259 0.709995,-0.411919 1.419101,-0.825373 2.129984,-1.235757 0.04788,-0.02764 -0.09303,0.05985 -0.14091,0.08749 -0.806661,0.465675 -1.611553,0.934488 -2.422639,1.392413 -0.140773,0.07948 -0.310085,0.111907 -0.44498,0.205177 -0.214031,0.09025 -0.48155,0.221426 -0.701031,0.09604 -0.219639,-0.249748 -0.160144,-0.543712 -0.07094,-0.845592 0.102504,-0.275323 0.08901,-0.58556 0.214272,-0.857495 0.02947,-0.295775 0.07217,-0.591296 0.19068,-0.866667 0.01021,-0.116089 0.01254,-0.240621 0.03962,-0.354649 0.004,-0.01685 0.04007,-0.05649 0.02974,-0.04259 -0.0053,0.0071 -0.01485,0.0096 -0.02228,0.01441 -0.727501,0.535183 -0.100027,0.07075 2.142522,-1.224811 0.03739,-0.0216 -0.07695,0.03927 -0.114331,0.06088 -0.796172,0.460262 -1.587021,0.929764 -2.386252,1.384693 -0.686599,0.390818 3.018331,-1.773842 2.050223,-1.189124 -0.792777,0.465559 -1.613856,0.885974 -2.378331,1.396678 -0.69219,0.462416 2.884611,-1.663189 2.161076,-1.251542 -0.799456,0.454841 -1.566687,0.968735 -2.388844,1.381129 -0.74445,0.373415 1.437365,-0.841761 2.155268,-1.263968 0.03598,-0.02116 -0.07572,0.03624 -0.109464,0.06081 -0.03413,0.02485 -0.06178,0.05757 -0.09267,0.08636 -0.0937,0.13646 -0.165976,0.177758 -0.297625,0.268394 -0.133345,0.0918 -0.07987,0.08392 -0.188775,0.206363 -0.03143,0.03533 -0.06907,0.06461 -0.103608,0.09692 -0.05422,0.07569 -0.216925,0.29234 -0.27941,0.351726 -0.09254,0.08795 -0.233396,0.109557 -0.275018,0.256451 -0.231926,0.210391 0.04526,-0.02506 -0.205548,0.140484 -0.136534,0.09012 -0.224837,0.260305 -0.317903,0.388744 -0.187705,0.217916 0.02311,-0.04171 -0.147635,0.222662 -0.101087,0.156526 -0.271678,0.266186 -0.396259,0.401941 -0.242276,0.290823 -0.52928,0.544627 -0.788338,0.820491 -0.261004,0.184676 -0.234067,0.348854 -0.412483,0.58038 -0.03455,0.04483 -0.0834,0.07709 -0.119217,0.120912 -0.03842,0.047 -0.06841,0.10031 -0.10261,0.150464 -0.205873,0.254881 -0.232787,0.616899 -0.47919,0.838045 -0.273892,0.137711 -0.435413,0.399968 -0.658388,0.602628 -0.06532,0.08665 -0.152785,0.155941 -0.212822,0.246332 -0.03054,0.04597 -0.03515,0.105718 -0.06435,0.15255 -0.07329,0.117559 -0.210645,0.136798 -0.289084,0.248554 -0.235502,0.128422 -0.326868,0.371075 -0.480322,0.578943 -0.196043,0.157762 -0.351434,0.371507 -0.498107,0.573651 -0.275249,0.305407 0.105526,-0.129292 -0.174041,0.235618 -0.1531,0.199837 -0.390837,0.331312 -0.564843,0.510869 -0.12746,0.128865 -0.265267,0.247323 -0.390994,0.377878 -0.284774,0.295709 -0.466247,0.675791 -0.79036,0.937783 0,0 -2.442047,1.033564 -2.442047,1.033564 z"
       transform="translate(0,988.36218)"
       id="path3035"
       style="fill:#0000ff;fill-opacity:1;stroke:none" />
    <path
       d="m 45.363548,12.651628 c 0.550267,-0.05437 1.087389,-0.193944 1.635876,-0.268311 0.400449,-0.08513 0.675551,0.07395 0.917043,0.377116 0.171083,0.265172 0.186227,0.584563 0.264771,0.882293 0.0779,0.305268 0.101614,0.619718 0.215095,0.915259 0.09515,0.246237 0.296167,0.433081 0.475138,0.623268 0.147347,0.240857 0.361649,0.301034 0.625238,0.337755 0.28408,0.03681 0.544586,-0.08442 0.796431,-0.195812 0.251843,-0.09387 0.480663,-0.238253 0.720606,-0.359954 0.04403,-0.01501 0.09063,-0.02395 0.132099,-0.04503 0.185856,-0.09447 0.02217,-0.06383 0.224563,-0.135562 0.160249,-0.0568 0.319362,-0.0659 0.47811,-0.132468 0.200078,-0.102359 0.429683,-0.0942 0.641176,-0.146654 0.09514,-0.0236 0.183608,-0.06888 0.276723,-0.0995 0.291622,-0.04935 0.548004,-0.182353 0.839113,-0.237908 0.302047,-0.05544 0.592601,-0.165263 0.882418,-0.269784 0.316684,-0.0523 0.611977,-0.163601 0.921644,-0.241094 0.253323,-0.01402 0.477602,-0.119858 0.720515,-0.179844 0,0 -2.10808,1.620259 -2.10808,1.620259 l 0,0 c -0.237614,0.07299 -0.478409,0.120958 -0.719564,0.180128 -0.301316,0.09354 -0.611984,0.14654 -0.908922,0.254462 -0.294037,0.103239 -0.595628,0.185671 -0.9004,0.250006 -0.276651,0.08467 -0.547752,0.18287 -0.829708,0.250179 -0.302447,0.08761 -0.619006,0.125134 -0.910601,0.251849 -0.288105,0.08044 -0.549825,0.206302 -0.812405,0.348198 -0.235976,0.131849 -0.485934,0.240243 -0.738005,0.337236 -0.286079,0.10376 -0.588995,0.139693 -0.888035,0.06878 -0.295729,-0.08078 -0.542804,-0.214965 -0.718223,-0.475769 -0.194324,-0.220243 -0.42018,-0.424884 -0.519815,-0.708242 -0.123164,-0.30359 -0.167487,-0.621879 -0.231706,-0.941164 -0.07081,-0.260927 -0.08558,-0.539481 -0.209704,-0.780799 -0.211949,-0.237277 -0.451256,-0.218968 -0.753729,-0.161035 -0.549262,0.08527 -1.091968,0.211462 -1.645988,0.264744 0,0 2.128326,-1.582595 2.128326,-1.582595 z"
       transform="translate(0,988.36218)"
       id="path3056"
       style="fill:#0000ff;fill-opacity:1;stroke:none" />
    <path
       d="m 11.069034,26.726107 c 0.548188,-0.105696 1.111744,-0.202339 1.630727,-0.41438 0.216009,-0.122168 0.466223,-0.1313 0.698021,-0.195785 0.09421,-0.02621 0.181508,-0.07303 0.273832,-0.105258 0.04768,-0.01221 0.0975,-0.01797 0.143047,-0.03664 0.0823,-0.03373 0.313139,-0.16877 0.236103,-0.124314 -0.685669,0.395683 -2.752395,1.565723 -2.066835,1.169851 0.797144,-0.460305 1.596584,-0.916623 2.394876,-1.374934 0.285667,-0.05649 0.540528,-0.180657 0.828625,-0.232451 0.05235,-0.0064 0.105906,-0.0063 0.157059,-0.01919 0.09099,-0.02286 0.173844,-0.07163 0.264008,-0.09756 0.148036,-0.04258 0.298523,-0.06168 0.450946,-0.07993 0.292367,-0.146336 0.579031,-0.160055 0.884971,-0.05233 0.278742,0.134094 0.593818,0.125874 0.881629,0.220556 0.289054,0.0794 0.575897,0.131036 0.831228,0.295541 0.200606,0.176731 0.350713,0.399332 0.53927,0.586716 0.166806,0.185389 0.330769,0.377701 0.51796,0.543349 0.215903,0.19851 0.430896,0.387787 0.64232,0.595411 0.214671,0.201654 0.53259,0.212128 0.74829,0.398493 0.07363,0.07589 0.121387,0.09561 0.220076,0.0909 0,0 -2.198475,1.509754 -2.198475,1.509754 l 0,0 c -0.09768,-0.04709 -0.187235,-0.100598 -0.269798,-0.172014 -0.266119,-0.126549 -0.550756,-0.225589 -0.763868,-0.438768 -0.206609,-0.207291 -0.438647,-0.37699 -0.643025,-0.585545 -0.182242,-0.178248 -0.35732,-0.36432 -0.525565,-0.555723 -0.162462,-0.176201 -0.304215,-0.374919 -0.496697,-0.520513 -0.253401,-0.115283 -0.526587,-0.162526 -0.792335,-0.241766 -0.296422,-0.05826 -0.590893,-0.117858 -0.878105,-0.213846 -0.290255,-0.0265 -0.542138,0.07728 -0.822367,0.136097 -0.290307,0.06001 -0.568457,0.163127 -0.861229,0.212615 -0.26768,0.08004 -0.537491,0.168106 -0.790572,0.284762 0.720292,-0.418096 1.43985,-0.837461 2.160878,-1.254287 0.03695,-0.02136 -0.07166,0.04646 -0.108589,0.06786 -0.795684,0.461163 -1.590466,0.923915 -2.389185,1.3798 -0.122582,0.06997 -0.264357,0.088 -0.394054,0.139511 -0.319397,0.102278 -0.652658,0.160879 -0.961792,0.297272 -0.544264,0.158013 -1.0968122,0.279786 -1.6521024,0.391952 0,0 2.1107274,-1.605202 2.1107274,-1.605202 z"
       transform="translate(0,988.36218)"
       id="path3077"
       style="fill:#0000ff;fill-opacity:1;stroke:none" />
    <path
       d="m 21.995972,27.572741 c 0.577684,0.136648 1.166588,0.214831 1.75756,0.263268 0.405928,0.03072 0.808044,-0.06982 1.211161,-0.112187 0.278928,-0.05085 0.648664,-0.103686 0.904529,-0.225474 0.126664,-0.07654 0.281413,-0.07149 0.416599,-0.116957 0.132123,-0.04444 0.249131,-0.112368 0.386291,-0.150829 0.241157,-0.177309 0.534875,-0.212687 0.824071,-0.240624 0.267941,-0.139543 0.58235,-0.111288 0.855663,-0.220175 0.04492,-0.01487 0.0926,-0.02315 0.134772,-0.0446 0.482971,-0.24568 -0.276717,0.08613 0.221269,-0.141027 0.134029,-0.06114 0.27606,-0.08458 0.419941,-0.108721 0.297258,-0.0622 0.571808,-0.153933 0.879015,-0.189465 0.300442,-0.04725 0.587451,-0.142211 0.893785,-0.177475 0.343244,-0.03095 0.688247,-0.03145 1.032592,-0.03303 0.235565,-2.86e-4 0.119994,-0.01236 0.346832,0.03505 0,0 -2.170248,1.532887 -2.170248,1.532887 l 0,0 c -0.204239,-0.0098 -0.09673,-0.0073 -0.322553,-0.0055 -0.338192,0.0053 -0.677946,0.01064 -1.012638,0.0646 -0.2988,0.05662 -0.588614,0.153073 -0.893124,0.178473 -0.292021,0.05799 -0.573011,0.156574 -0.86658,0.207799 -0.26474,0.08602 -0.495833,0.245008 -0.770862,0.301682 -0.295399,0.05116 -0.581375,0.134287 -0.874782,0.192154 -0.282259,0.05557 -0.533866,0.1697 -0.797801,0.278747 -0.264056,0.100678 -0.53536,0.173873 -0.801387,0.269545 -0.309934,0.06828 -0.614952,0.162347 -0.934181,0.176938 -0.410175,0.05075 -0.821875,0.123712 -1.235695,0.06152 -0.598876,-0.06543 -1.193144,-0.163035 -1.783118,-0.285215 0,0 2.178889,-1.511387 2.178889,-1.511387 z"
       transform="translate(0,988.36218)"
       id="path3098"
       style="fill:#0000ff;fill-opacity:1;stroke:none" />
    <path
       d="m 33.874779,25.541444 c 0.07344,0.452339 0.180443,0.940177 0.523231,1.265981 0.20571,0.21169 0.419957,0.41722 0.613105,0.64058 0.176618,0.175052 0.408717,0.267818 0.612465,0.402365 0.231864,0.12772 0.509814,0.199572 0.771297,0.145047 0.04378,-0.01001 0.08993,-0.01262 0.131328,-0.03003 0.0777,-0.03267 0.140825,-0.0943 0.218099,-0.127968 0.134221,-0.05847 0.275233,-0.08266 0.418374,-0.107198 0.16285,-0.113507 0.364878,-0.114089 0.545069,-0.172689 0.08711,-0.02833 0.166108,-0.07762 0.251558,-0.110628 -0.08948,0.0206 0.289899,-0.190558 0.214753,-0.147159 -0.723144,0.417634 -1.443077,0.840878 -2.169461,1.25285 -0.07614,0.04319 0.132561,-0.116189 0.208644,-0.159484 0.801294,-0.455972 1.607867,-0.902605 2.411801,-1.353908 0.799259,-0.444027 1.80664,-1.007953 -1.938126,1.117642 -0.03772,0.02141 0.07098,-0.05008 0.108558,-0.07173 2.41032,-1.388753 1.507167,-1.144339 2.537505,-1.408115 0.813461,-0.423418 1.794524,-0.996303 -1.934702,1.118365 -0.03777,0.02142 0.0731,-0.04688 0.109988,-0.06979 0.151613,-0.09414 0.06229,-0.02881 0.204379,-0.145102 0.844594,-0.637765 0.02857,-0.02911 2.518463,-1.435194 0.07692,-0.04344 0.310293,-0.168933 0.233875,-0.124622 -2.426312,1.406895 -2.856991,1.693575 -2.062901,1.17096 6.317405,-3.617885 0.304481,-0.171543 0.228577,-0.128275 -0.03809,0.02171 0.07367,-0.04759 0.111186,-0.07028 0.07199,-0.04354 0.137249,-0.09771 0.209759,-0.140379 0.793422,-0.466908 1.592132,-0.924769 2.388199,-1.387153 -7.192101,4.136523 5.649418,-3.305593 -1.632095,0.8917 0.223792,-0.128622 0.415234,-0.298639 0.614415,-0.460375 0.802795,-0.453211 1.606635,-0.904578 2.408386,-1.359633 0.07676,-0.04357 0.309992,-0.168901 0.233644,-0.12461 -0.721386,0.418492 -2.874563,1.691336 -2.171435,1.242846 2.240204,-1.428914 1.496418,-1.616644 2.465758,-1.338168 0.237939,0.202992 0.288057,0.496646 0.380307,0.777407 0.08526,0.283398 0.17702,0.563376 0.268031,0.845025 0.103142,0.228684 0.231043,0.448142 0.370138,0.657032 0.116136,0.233885 0.254175,0.450729 0.401184,0.665762 0.166496,0.182225 0.232355,0.346909 0.503564,0.310036 0.242181,-0.02632 0.500376,-0.09394 0.70678,-0.227726 -0.725813,0.414485 -1.448485,0.834519 -2.17744,1.243455 -0.07554,0.04238 0.128702,-0.117933 0.203569,-0.161486 0.796626,-0.463435 1.599118,-0.916718 2.399901,-1.372934 0.723501,-0.412188 -2.885385,1.663686 -2.168056,1.240849 0.792939,-0.467407 1.596602,-0.916378 2.394903,-1.374566 -3.377446,2.965841 -2.43683,1.376716 -1.643563,0.739365 0.106475,-0.09936 0.226723,-0.181982 0.34225,-0.270183 0,0 2.459634,-1.007508 2.459634,-1.007508 l 0,0 c -0.100519,0.11081 -0.203806,0.205668 -0.338127,0.275705 -0.273407,0.261778 0.07429,-0.05702 -0.220683,0.16962 -0.139654,0.107304 -0.07691,0.08936 -0.193738,0.22514 -0.633921,0.736744 -2.664414,0.186875 -2.478609,1.535685 5.623414,-3.250499 -0.06579,0.04093 -0.233309,0.12523 -0.743271,0.37403 1.439312,-0.835339 2.157655,-1.255262 0.07315,-0.04276 -0.13808,0.09858 -0.210786,0.1421 -0.788937,0.472241 -1.584748,0.932901 -2.377123,1.399351 -0.262244,0.07832 -0.518406,0.164904 -0.796781,0.113378 -0.275312,-0.08329 -0.453738,-0.277374 -0.624077,-0.501611 -0.149368,-0.215975 -0.28579,-0.436764 -0.404232,-0.671142 -0.149183,-0.23162 -0.292593,-0.469049 -0.404123,-0.721346 -0.08636,-0.280941 -0.185646,-0.556027 -0.264551,-0.839201 -0.01599,-0.04481 -0.140005,-0.529559 -0.196771,-0.510801 -0.01417,0.0047 0.003,0.02971 0.0045,0.04456 -0.514693,0.645654 2.869679,-1.635058 2.152379,-1.226083 -0.79902,0.455567 -1.590286,0.924605 -2.386686,1.384736 -0.077,0.04449 -0.317076,0.160696 -0.240433,0.1156 0.717021,-0.421881 1.439495,-0.834422 2.159243,-1.251634 -0.241339,0.107322 -0.387026,0.326789 -0.618426,0.449642 -5.604253,3.281894 -0.903727,0.52833 -0.222311,0.132633 0.03649,-0.02119 -0.07308,0.04288 -0.105768,0.06957 -0.244593,0.199687 0.06109,-0.0011 -0.207273,0.155478 -0.794195,0.463248 -1.587182,0.928564 -2.380774,1.392846 0.724218,-0.42286 2.946856,-1.82615 1.95669,-1.097372 -1.282976,0.94429 -4.997461,2.746109 -0.342788,0.190322 -0.88429,0.52762 -0.42333,0.253206 -2.49779,1.450356 -0.07722,0.04456 -0.318928,0.158889 -0.24207,0.113718 2.058331,-1.209712 2.929191,-1.585059 2.042028,-1.197344 -0.424728,0.297747 0.227395,-0.169795 -0.195052,0.169748 -0.811654,0.65237 -1.778678,1.157181 -2.752336,1.5495 -0.866475,0.427984 -0.186667,0.09557 2.038459,-1.1929 0.03719,-0.02154 -0.07346,0.04463 -0.110615,0.06622 -0.767827,0.446155 -1.713609,1.098585 -2.628624,1.49859 0.720028,-0.416142 1.442549,-0.827999 2.160082,-1.248427 0.07318,-0.04288 -0.149087,0.08103 -0.221823,0.124652 -0.788211,0.47275 -1.579096,0.941029 -2.369245,1.410532 -0.135805,0.0807 -0.09088,0.05616 -0.240447,0.113143 -0.266965,0.09819 -0.546243,0.167184 -0.816453,0.255538 -0.266889,0.08196 -0.510829,0.23576 -0.798944,0.225097 -0.30614,-0.0295 -0.602091,-0.100912 -0.861842,-0.273549 -0.234771,-0.131218 -0.467346,-0.273196 -0.654268,-0.469551 -0.19563,-0.215855 -0.39788,-0.426037 -0.600371,-0.635354 -0.35444,-0.395597 -0.501306,-0.904709 -0.608386,-1.417321 0,0 2.349695,-1.230167 2.349695,-1.230167 z"
       transform="translate(0,988.36218)"
       id="path3119"
       style="fill:#0000ff;fill-opacity:1;stroke:none" />
    <path
       d="m 48.203256,25.801292 c 0.568053,-0.196775 1.118456,-0.439835 1.684793,-0.640128 0.375023,-0.09995 0.621688,0.103205 0.890026,0.327792 0.197659,0.221186 0.29661,0.477937 0.477203,0.716189 0.178422,0.21626 0.308625,0.475982 0.541014,0.640301 0.138143,0.17274 0.09248,0.0888 0.223435,0.03658 0.05467,-0.0218 0.151099,-0.03228 0.205499,-0.04044 0.137616,-0.02356 0.282214,0.0024 0.407555,-0.0736 0.03648,-0.02213 0.132463,-0.106401 0.09522,-0.08556 -0.727216,0.406895 -2.897312,1.647873 -2.167752,1.245194 0.80596,-0.444847 1.59799,-0.914478 2.396985,-1.371718 -4.097683,2.220596 -2.379838,1.539847 -1.664187,0.860244 0.771973,-0.65294 0.363267,-0.316004 2.431397,-1.470544 0.04647,-0.02594 0.172152,0.07703 0.311341,-0.07798 0.23899,-0.119964 -0.0784,0.02192 0.184725,-0.03743 0.04841,-0.01092 0.08692,-0.04959 0.13439,-0.06407 0,0 -2.103924,1.640209 -2.103924,1.640209 l 0,0 c -0.104139,0.0418 -0.205799,0.05586 -0.299075,0.125827 -0.06621,0.0084 -0.19226,0.01247 -0.252893,0.04073 -0.02101,0.0098 -0.06797,0.06209 -0.04797,0.05036 2.195649,-1.288033 2.727683,-1.973261 2.109084,-1.205001 -0.308675,0.230963 0.111457,-0.09493 -0.186458,0.176421 -0.74076,0.67471 -2.355751,0.998376 -2.69159,1.626169 0.720449,-0.416513 2.888503,-1.654225 2.161345,-1.24954 -1.616459,0.899608 -1.715952,1.321157 -2.947395,1.469007 -0.22895,0.03822 -0.402298,0.01921 -0.552626,-0.181251 -0.227242,-0.202104 -0.388917,-0.456873 -0.575551,-0.69491 -0.163863,-0.216355 -0.262619,-0.464844 -0.443601,-0.663809 -0.23261,-0.188004 -0.433794,-0.231304 -0.7203,-0.109382 -0.563103,0.216794 -1.127078,0.43035 -1.69415,0.636746 0,0 2.093456,-1.626397 2.093456,-1.626397 z"
       transform="translate(0,988.36218)"
       id="path3140"
       style="fill:#0000ff;fill-opacity:1;stroke:none" />
    <path
       d="m 10.492296,40.407526 c -5.3142309,3.054659 0.322754,-0.196491 0.486933,-0.289923 0.286915,-0.16328 0.238284,-0.104908 0.529397,-0.241514 0.141755,-0.06652 0.277976,-0.1444 0.419537,-0.211329 -3.6965259,2.510131 -2.3539017,1.307003 -1.495267,0.803972 0.850686,-0.597719 0.303687,-0.21842 2.507842,-1.446232 0.728238,-0.405661 -2.878175,1.682735 -2.170324,1.242463 0.780936,-0.48573 1.588833,-0.926833 2.389715,-1.378921 0.429732,-0.242578 -0.147885,0.155816 0.235427,-0.11886 0.860973,-0.358623 1.647167,-0.859352 -1.915305,1.127869 -0.04294,0.02395 0.07933,-0.05815 0.118194,-0.08827 0.127558,-0.09887 0.09839,-0.07705 0.214659,-0.192243 0.790186,-0.698232 1.874926,-1.178381 2.723035,-1.654504 0.187497,-0.04833 0.100983,-0.01236 0.260922,-0.104526 0.124191,-0.08144 0.278089,-0.07619 0.412885,-0.121292 0.132863,-0.04446 0.250121,-0.11125 0.388212,-0.149031 0.24272,-0.175456 0.536792,-0.210608 0.826404,-0.2383 0,0 -2.127159,1.592292 -2.127159,1.592292 l 0,0 c -0.282757,0.05498 -0.535645,0.167893 -0.800445,0.275995 -0.260714,0.09919 -0.531498,0.16914 -0.780202,0.297983 -0.08621,0.03335 -0.332125,0.161639 -0.25243,0.114807 3.789225,-2.22666 2.577864,-1.571508 1.809181,-1.021248 -0.111594,0.09604 -0.194466,0.230889 -0.321883,0.30673 -0.882479,0.525267 -1.736478,1.039631 -2.625178,1.526785 -0.08061,0.0354 -0.312737,0.161577 -0.23659,0.117392 0.720456,-0.418054 2.893607,-1.651353 2.162575,-1.25208 -8.0574636,4.4008 1.565658,-0.67043 -0.344331,0.187594 -0.215532,0.178642 0.01294,0.0044 -0.230525,0.144783 -0.197969,0.114116 -0.04168,0.04866 -0.235247,0.190268 -0.80241,0.587022 -2.6260341,-0.383402 -2.5849718,1.487959 -0.2214171,0.108573 -0.4481435,0.207566 -0.6678149,0.319514 -0.088037,0.04487 -0.3460847,0.190807 -0.2607594,0.140978 0.8323668,-0.486097 5.1655291,-2.979902 -0.5078856,0.287817 0,0 2.0713997,-1.656924 2.0713997,-1.656924 z"
       transform="translate(0,988.36218)"
       id="path3161"
       style="fill:#0000ff;fill-opacity:1;stroke:none" />
    <path
       d="m 16.538796,37.697302 c 0.0028,0.537191 -0.102536,1.068213 -0.03697,1.604118 0.04033,0.283403 0.175734,0.531776 0.376682,0.732328 0.186009,0.109804 0.43623,0.02255 0.644815,0.0061 0.295897,0.01197 0.512738,-0.188055 0.774263,-0.28611 0.09226,-0.04402 0.197441,-0.03271 0.292808,-0.06201 0.0438,-0.01346 0.164095,-0.08141 0.124294,-0.05871 -0.724349,0.413142 -1.451181,0.821923 -2.178269,1.230224 -0.03732,0.02096 0.07184,-0.04659 0.108835,-0.06812 0.795448,-0.462953 1.59228,-0.923525 2.38842,-1.385288 0.04496,-0.01371 0.08929,-0.02972 0.134883,-0.04114 0.300671,-0.07532 0.0024,0.02711 0.266043,-0.09101 0.04198,-0.01881 0.168583,-0.07265 0.128766,-0.04962 -0.721299,0.417225 -2.864693,1.700021 -2.17459,1.233002 0.761637,-0.515429 1.593203,-0.919098 2.389804,-1.378646 0.04271,-0.01615 0.08453,-0.03488 0.128118,-0.04846 0.31455,-0.09801 -0.02111,0.03686 0.25457,-0.102457 0.04037,-0.0204 0.163853,-0.0761 0.124709,-0.05345 -2.575836,1.490655 -2.859235,1.671737 -2.062916,1.169357 0.919236,-0.665371 1.920565,-1.244729 2.956283,-1.705301 0.298362,-0.08979 0.620376,-0.141241 0.928485,-0.08504 0.315289,0.123113 0.537311,0.36177 0.776042,0.588583 0.176771,0.235696 0.401096,0.41191 0.62368,0.597392 0.224412,0.123302 0.468106,0.228868 0.714815,0.304098 0.328421,0.09767 0.462015,0.01698 0.74065,-0.126698 0.276386,-0.130759 0.591881,-0.08576 0.874344,-0.181879 0.335902,-0.05278 0.654399,-0.169596 0.987431,-0.234458 -0.271481,0.07266 0.736701,-0.398757 0.502898,-0.261646 -0.694727,0.407412 -1.399571,0.797338 -2.101495,1.19222 -0.06448,0.03627 0.124815,-0.07957 0.189026,-0.116321 0.820804,-0.469763 1.643942,-0.935438 2.465913,-1.403157 0.209176,-0.08141 0.445547,-0.130189 0.648435,-0.226466 0.06587,-0.03126 0.119247,-0.08422 0.182167,-0.121046 0.188201,-0.110158 0.229391,-0.114377 0.437483,-0.190702 0.889759,-0.588847 0.01126,-0.0015 -1.862422,1.05575 -0.06307,0.03559 0.120388,-0.0807 0.177794,-0.124839 0.158638,-0.121982 0.196886,-0.183779 0.372828,-0.287176 0.821408,-0.482723 1.649855,-0.953368 2.474783,-1.430052 0.317078,-0.1239 0.164745,-0.05527 0.457705,-0.204325 0,0 -2.067772,1.650352 -2.067772,1.650352 l 0,0 c -0.2965,0.137761 -0.147541,0.06539 -0.446676,0.217527 0.683344,-0.396026 1.368772,-0.788476 2.05003,-1.188077 0.06742,-0.03955 -0.142324,0.06579 -0.208264,0.107763 -0.128913,0.08205 -0.21,0.227494 -0.340587,0.306854 -0.810776,0.492719 -1.639195,0.955847 -2.462828,1.426758 -0.0712,0.04071 -0.147457,0.07188 -0.221185,0.107822 -0.415421,0.196756 -0.828477,0.392034 -1.258878,0.555455 0.691067,-0.401355 1.382579,-0.801947 2.073202,-1.204067 0.06297,-0.03666 -0.127082,0.07132 -0.190216,0.107687 -0.795512,0.458291 -1.940381,1.283905 -2.982004,1.638529 -0.328256,0.09107 -0.660544,0.157237 -0.991692,0.236777 -0.291676,0.0398 -0.582046,0.08458 -0.847037,0.221921 -0.285605,0.103165 -0.57395,0.06824 -0.85676,-0.03476 C 21.754486,41.1328 21.47951,41.03355 21.253754,40.856537 21.020228,40.672545 20.815958,40.463689 20.62217,40.237873 20.428277,40.049608 20.2274,39.836002 19.944513,39.802054 c -0.292413,0.01182 -0.584231,0.05862 -0.845067,0.19883 -0.842179,0.438716 -1.462165,0.846804 1.918016,-1.135128 0.06474,-0.03796 -0.116381,0.03286 -0.22107,0.124216 -0.0336,0.02932 -0.06109,0.06498 -0.09164,0.09747 -0.985785,0.585237 -1.953086,1.200406 -2.994611,1.668656 4.284238,-2.473593 1.42191,-0.814201 -0.238335,0.115157 -0.159871,0.08949 -0.360306,0.09289 -0.507773,0.210651 5.707121,-3.320871 -0.281194,0.151512 -0.3459,0.187299 -0.119962,0.06635 -0.293415,0.04447 -0.40635,0.135245 -0.262994,0.132204 -0.528783,0.217582 -0.828,0.21388 -0.294241,0.01997 -0.557255,0.02553 -0.778943,-0.202549 -0.222152,-0.252601 -0.395051,-0.541423 -0.446745,-0.87933 -0.08346,-0.548426 0.0232,-1.085309 0.01739,-1.635026 0,0 2.363307,-1.204165 2.363307,-1.204165 z"
       transform="translate(0,988.36218)"
       id="path3182"
       style="fill:#0000ff;fill-opacity:1;stroke:none" />
    <path
       d="m 31.799661,37.572593 c 0.352466,0.411296 0.73854,0.787134 1.165141,1.120645 0.252567,0.185114 0.386928,0.488806 0.642498,0.666477 0.123559,0.06727 0.163532,0.05236 0.259306,-0.02873 0.0253,-0.02142 0.110024,-0.07374 0.08115,-0.05746 -2.170614,1.223759 -2.874397,1.762177 -2.106526,1.181574 0.192778,-0.155123 0.366695,-0.33716 0.531628,-0.522023 0.186368,-0.176725 0.344111,-0.381517 0.558316,-0.525976 0.235817,-0.161217 0.4612,-0.331473 0.66546,-0.531937 0.190007,-0.182053 0.382008,-0.363387 0.560553,-0.556886 0.178138,-0.179204 0.363397,-0.35196 0.535043,-0.537554 0.786097,-0.771217 1.004988,-0.642847 2.628645,-1.579537 0.703179,-0.405665 -2.810428,1.626167 -2.116207,1.205356 0.08536,-0.05174 5.884338,-3.37827 0.363059,-0.21046 0.322808,-0.165108 0.581535,-0.404068 0.842637,-0.648368 0.18705,-0.1393 0.09369,-0.07009 0.280065,-0.207629 0,0 2.472981,-0.966784 2.472981,-0.966784 l 0,0 c -0.197248,0.116518 -0.101791,0.05157 -0.285862,0.195589 -0.225941,0.126409 -0.2103,0.193379 -0.378451,0.354132 -0.130061,0.12434 -0.312216,0.214995 -0.460807,0.313724 -0.814327,0.473822 -1.631575,0.942659 -2.442981,1.421466 -0.691549,0.408081 2.787875,-1.594627 2.083404,-1.209281 -1.537431,0.840975 -4.651363,2.725579 -0.319798,0.157949 0.07526,-0.04461 -0.320256,0.14742 -0.203733,0.165451 -0.199288,0.15451 -0.359307,0.35822 -0.53559,0.536783 -0.207667,0.163051 -0.372938,0.377651 -0.560224,0.562788 -0.22296,0.178904 -0.393044,0.421757 -0.656609,0.548652 -0.218594,0.19047 0.0272,-0.0076 -0.212564,0.138502 -0.142482,0.08684 -0.240152,0.245966 -0.356324,0.361292 -0.195649,0.157252 -0.351128,0.363616 -0.519597,0.547433 -0.801194,0.629974 -0.255372,0.207551 -2.460897,1.452811 -0.158889,0.08971 -0.374533,-0.07087 -0.499283,-0.145917 -0.232056,-0.20591 -0.392847,-0.476592 -0.633697,-0.674393 -0.424602,-0.359271 -0.814321,-0.751946 -1.192307,-1.15955 0,0 2.27157,-1.368143 2.27157,-1.368143 z"
       transform="translate(0,988.36218)"
       id="path3203"
       style="fill:#0000ff;fill-opacity:1;stroke:none" />
    <path
       d="m 39.846098,34.676732 c 0.394879,0.379571 0.783967,0.767404 1.192862,1.13208 0.303315,0.237283 0.5129,0.554726 0.698141,0.886224 0.139642,0.287012 0.29421,0.573277 0.507405,0.812782 0.150334,0.219992 0.307308,0.434164 0.464504,0.649367 0.173115,0.167922 0.299852,0.389662 0.527891,0.484823 0.16178,0.02171 0.317589,-0.01087 0.456204,-0.09918 0.03497,-0.02228 0.127894,-0.104292 0.09174,-0.084 -0.726926,0.407915 -1.444506,0.832268 -2.166759,1.248402 6.317707,-3.615886 0.306471,-0.169565 0.230365,-0.126258 -0.03844,0.02187 0.07356,-0.04913 0.110927,-0.07278 0.107657,-0.06814 0.204964,-0.143749 0.307622,-0.219253 0.09233,-0.0933 0.192321,-0.175223 0.30575,-0.24134 7.958233,-4.638785 -5.313619,3.065486 2.66004,-1.553913 -3.990908,2.243617 -2.34177,1.510828 -1.619424,0.818843 0.801959,-0.738752 0.852774,-0.605998 2.581223,-1.584229 0.13939,-0.07889 0.358466,-0.06832 0.509933,-0.05805 0.303635,0.02941 0.566715,0.20072 0.783115,0.406757 0.216717,0.157008 0.442194,0.286241 0.609744,0.499726 0.154062,0.196526 0.374955,0.306083 0.572029,0.448218 0.236436,0.152754 0.518855,0.168615 0.791757,0.186396 0.306901,0.04976 0.533399,-0.14286 0.802567,-0.241727 0.133387,-0.146134 0.322456,-0.156871 0.492784,-0.223194 0.0837,-0.03259 0.158876,-0.08434 0.24168,-0.119137 0.04572,-0.0133 0.09376,-0.02033 0.137167,-0.0399 0.08055,-0.03632 0.308148,-0.173083 0.231657,-0.128851 -0.684846,0.39602 -2.749136,1.567039 -2.064666,1.17037 0.796651,-0.461682 1.596306,-0.918161 2.39446,-1.377241 0.284331,-0.108988 0.517685,0.05518 0.775802,0.148102 0.240768,0.152465 0.503245,0.274903 0.775044,0.361169 0.177135,0.10458 0.367319,0.170439 0.565914,0.218494 0,0 -2.193334,1.500614 -2.193334,1.500614 l 0,0 c -0.196381,-0.06592 -0.384158,-0.148834 -0.573642,-0.232189 -0.267869,-0.104932 -0.524677,-0.232714 -0.781371,-0.361592 -0.236258,-0.09085 -0.418463,-0.118025 -0.643311,0.03073 0.719858,-0.41831 1.43898,-0.837888 2.159573,-1.254929 0.03711,-0.02148 -0.07202,0.04659 -0.109048,0.06819 -0.794402,0.463537 -1.588694,0.927274 -2.385191,1.387203 -0.119243,0.06886 -0.252014,0.100122 -0.375195,0.160231 -0.24731,0.111058 -0.499788,0.20701 -0.737799,0.337894 -0.282711,0.128547 -0.564432,0.188624 -0.877106,0.136221 -0.310187,-0.03951 -0.612916,-0.104952 -0.870283,-0.294261 -0.225595,-0.143945 -0.440732,-0.304223 -0.612024,-0.512529 -0.166484,-0.189484 -0.40327,-0.293401 -0.587691,-0.463808 -0.196297,-0.157374 -0.404694,-0.266015 -0.664358,-0.237583 -0.127114,0.02566 -0.171575,0.0286 -0.296663,0.0814 -0.04857,0.0205 -0.185694,0.09974 -0.140441,0.0727 4.323849,-2.58346 2.489545,-1.734521 1.953738,-1.084358 -0.310702,0.236101 0.110448,-0.09516 -0.192582,0.182612 -0.779417,0.714443 -2.0423,0.915653 -2.720118,1.669535 0.713047,-0.413689 2.84965,-1.659097 2.139139,-1.241068 -0.798046,0.46953 -1.588558,0.95279 -2.401748,1.395575 -0.726659,0.395668 1.423879,-0.843281 2.142044,-1.254165 0.338105,-0.193441 -0.651717,0.441201 -0.316992,0.213277 -0.113019,0.1305 -0.253067,0.247432 -0.402173,0.333997 -3.839011,2.228776 -2.520545,1.46432 -0.225764,0.137369 -0.448502,0.259149 -2.048242,1.797852 -3.092636,1.34166 -0.231376,-0.156068 -0.407972,-0.367817 -0.589181,-0.578655 -0.155846,-0.208936 -0.302988,-0.42296 -0.453815,-0.634998 -0.212727,-0.261673 -0.384427,-0.553836 -0.527563,-0.858922 -0.175113,-0.306264 -0.370755,-0.596648 -0.65214,-0.81739 -0.395282,-0.375706 -0.777797,-0.764943 -1.190095,-1.122606 0,0 2.250296,-1.402859 2.250296,-1.402859 z"
       transform="translate(0,988.36218)"
       id="path3224"
       style="fill:#0000ff;fill-opacity:1;stroke:none" />
    <path
       d="m 11.613548,49.437342 c 0.600171,-0.148884 1.213283,-0.226227 1.828575,-0.276159 0.30977,-0.04786 0.631866,0.0016 0.9414,-0.03822 0.259291,-0.03337 0.527667,-0.136343 0.783352,-0.193893 0.0949,-0.0165 0.192062,-0.02314 0.284712,-0.0495 0.171777,-0.04887 0.329227,-0.139499 0.498658,-0.195974 0.27482,-0.0916 0.539652,-0.134834 0.805584,-0.252848 0.485197,-0.28311 1.059097,-0.249326 1.576298,-0.416901 0.581637,-0.202639 1.195087,-0.257433 1.805321,-0.295427 0.113857,-0.0046 0.228545,8e-4 0.341572,-0.01366 0.05797,-0.0074 0.524951,-0.124871 0.58439,-0.138451 0.303371,-0.06931 0.606333,-0.114817 0.91485,-0.153478 0.628213,0.0011 1.217017,-0.208728 1.829805,-0.315865 0.104839,-0.01354 0.211374,-0.01746 0.314516,-0.04062 0.185885,-0.04172 0.360223,-0.124679 0.54323,-0.177617 0.30104,-0.08708 0.60023,-0.134796 0.910459,-0.174334 0.604544,-0.144683 1.222851,-0.205641 1.841985,-0.241363 0.460018,-0.150605 0.924531,-0.271879 1.404116,-0.339298 0.359231,-0.07933 0.702558,0.02038 1.055419,0.07519 0.348753,0.02316 0.677643,0.05716 0.98935,0.222474 0.331591,0.195912 0.694753,0.293403 1.073021,0.342733 0.409972,0.01259 0.645845,0.03724 0.879645,0.399601 0.152003,0.306929 0.146294,0.629545 0.08781,0.957286 -0.01854,0.220896 -0.176485,0.545236 0.0035,0.728868 0.211285,0.14723 0.461373,0.187056 0.698862,0.272311 0.324152,0.111869 0.665861,0.141149 1.005735,0.15982 0.235662,0.0079 0.117663,0.0048 0.353999,0.0093 0,0 -2.151978,1.553635 -2.151978,1.553635 l 0,0 c -0.240646,-0.0098 -0.120329,-0.0036 -0.360949,-0.01884 -0.355213,-0.03325 -0.70739,-0.08951 -1.044605,-0.21092 -0.287784,-0.0845 -0.564556,-0.188922 -0.786482,-0.399661 -0.211612,-0.291332 -0.182091,-0.592068 -0.108905,-0.932344 0.05337,-0.26437 0.125279,-0.514537 0.0065,-0.77556 -0.164195,-0.240532 -0.502067,-0.162397 -0.755078,-0.219261 -0.389974,-0.07756 -0.757972,-0.211572 -1.109868,-0.398159 -0.310861,-0.104163 -0.632169,-0.118268 -0.955066,-0.16401 -0.33553,-0.0563 -0.66173,-0.09195 -0.999063,-0.01107 -0.474555,0.08698 -0.930963,0.246654 -1.408982,0.312351 -0.614095,0.04753 -1.221788,0.133998 -1.825541,0.256945 -0.596414,0.107094 -1.165128,0.315712 -1.765374,0.402348 -0.609406,0.125712 -1.210662,0.280026 -1.836252,0.304832 -0.617029,0.09678 -1.221379,0.278261 -1.849323,0.290499 -0.605495,0.05311 -1.202873,0.14717 -1.782111,0.338393 -0.531911,0.110232 -1.067779,0.191377 -1.559923,0.438793 -0.533109,0.168742 -1.063664,0.354139 -1.610893,0.469992 -0.575724,0.13484 -1.150033,0.183443 -1.741246,0.200116 -0.619028,0.06308 -1.228908,0.171385 -1.8392659,0.2905 0,0 2.1283259,-1.582596 2.1283259,-1.582596 z"
       transform="translate(0,988.36218)"
       id="path3245"
       style="fill:#0000ff;fill-opacity:1;stroke:none" />
    <path
       d="m 33.563565,49.905527 c 0.430233,-0.340763 0.853445,-0.690103 1.26756,-1.050263 0.220187,-0.222276 0.493589,-0.377981 0.734031,-0.57498 4.576046,-2.67112 1.852992,-1.076226 0.219186,-0.142607 -0.03772,0.02156 0.06996,-0.05187 0.107661,-0.07347 0.799029,-0.457826 1.594932,-0.921375 2.402151,-1.364601 0.184407,-0.04178 0.09931,-0.0084 0.256652,-0.09655 0.275035,-0.132539 0.551984,-0.14971 0.826813,-0.01652 0.03953,0.0185 0.08157,0.03238 0.11859,0.0555 0.361434,0.225674 -0.108141,-0.03115 0.216972,0.160325 0.11214,0.06604 0.233383,0.09708 0.347215,0.162196 0.248681,0.102049 0.473663,0.239602 0.737055,0.303545 0.313849,0.03915 0.618988,0.05576 0.926166,0.132937 0.27687,0.08333 0.533041,0.198619 0.822616,0.24433 0.330134,0.0394 0.663302,0.03917 0.99528,0.04105 0.297122,6.34e-4 0.594244,-4.29e-4 0.891366,-0.0011 0,0 -2.146991,1.560538 -2.146991,1.560538 l 0,0 c -0.297916,5.56e-4 -0.595846,0.0016 -0.89375,-0.0017 -0.343282,-0.006 -0.689028,-0.01178 -1.026866,-0.07964 -0.281515,-0.06815 -0.542252,-0.192842 -0.826514,-0.249389 -0.310746,-0.06243 -0.633096,-0.05006 -0.937468,-0.147999 -0.263989,-0.09401 -0.511272,-0.227494 -0.765847,-0.343838 -0.227261,-0.105013 -0.43047,-0.24759 -0.66075,-0.341784 -0.255381,-0.02971 -0.481581,0.06315 -0.708948,0.17369 -0.08604,0.02933 -0.331702,0.147033 -0.253284,0.101061 0.718264,-0.421078 1.441697,-0.833279 2.161537,-1.251656 0.03686,-0.02142 -0.07572,0.03925 -0.112529,0.06076 -0.793733,0.463719 -1.589013,0.924842 -2.379025,1.394872 -0.715497,0.425697 1.436983,-0.841245 2.155475,-1.261867 -0.258658,0.17277 -0.493334,0.38231 -0.755359,0.552696 -0.391747,0.383701 -0.836614,0.712852 -1.261367,1.058453 0,0 -2.457628,0.995948 -2.457628,0.995948 z"
       transform="translate(0,988.36218)"
       id="path3266"
       style="fill:#0000ff;fill-opacity:1;stroke:none" />
  </g>
</svg>
