<?xml version="1.0" encoding="UTF-8" standalone="no"?>
<!-- Created with Inkscape (http://www.inkscape.org/) -->

<svg
   xmlns:dc="http://purl.org/dc/elements/1.1/"
   xmlns:cc="http://creativecommons.org/ns#"
   xmlns:rdf="http://www.w3.org/1999/02/22-rdf-syntax-ns#"
   xmlns:svg="http://www.w3.org/2000/svg"
   xmlns="http://www.w3.org/2000/svg"
   version="1.1"
   width="64"
   height="64"
   id="svg2">
  <defs
     id="defs4" />
  <metadata
     id="metadata7">
    <rdf:RDF>
      <cc:Work
         rdf:about="">
        <dc:format>image/svg+xml</dc:format>
        <dc:type
           rdf:resource="http://purl.org/dc/dcmitype/StillImage" />
        <dc:title></dc:title>
      </cc:Work>
    </rdf:RDF>
  </metadata>
  <g
     transform="translate(0,-988.36218)"
     id="layer1">
    <path
       d="m 10.176177,14.226107 c 0.396056,-0.08632 0.812235,-0.126966 1.195826,-0.264969 0.04245,-0.01527 0.426454,-0.214646 0.475335,-0.239827 0.07063,-0.03311 0.279303,-0.138586 0.211893,-0.09933 -5.0284292,2.928106 -0.162272,0.07593 0.485246,-0.276996 0.723679,-0.394437 -1.429539,0.820725 -2.145468,1.229061 -0.04204,0.02398 0.0825,-0.05064 0.123755,-0.07596 0.263122,-2.102715 2.148162,-0.904919 3.071546,-1.604959 0.788532,-0.432934 1.267255,-0.696778 -2.057017,1.187333 -0.03713,0.02105 0.06533,-0.0556 0.102087,-0.0773 1.105919,-0.652615 1.637675,-1.267313 2.669431,-1.455709 0.307244,-0.0029 0.541568,0.176783 0.800779,0.312937 0.235767,0.180232 0.436632,0.409426 0.621943,0.640982 0.105149,0.145086 0.257193,0.159028 0.411257,0.212507 0.08866,0.03078 0.171912,0.07556 0.259676,0.108815 0.272733,0.05588 0.477043,0.252804 0.724663,0.363868 0.214946,0.161974 0.473938,0.236865 0.719196,0.340168 0.280856,0.05578 0.54741,0.151037 0.824422,0.222356 0.280882,0.05591 0.543062,0.179855 0.801296,0.300202 0.277082,0.108477 0.577321,0.118644 0.870964,0.130671 0.307913,-0.0042 0.605876,-0.10331 0.914184,-0.138726 0.318282,-0.132817 0.668435,-0.164358 1.009132,-0.192163 0.142972,-0.06672 0.309915,-0.07034 0.455939,-0.123852 0.701983,-0.257265 3.329612,-1.871739 -1.923742,1.112521 1.505705,-0.889821 4.835778,-2.758346 0.338895,-0.196613 -0.03796,0.02162 0.07203,-0.04962 0.109959,-0.07129 0.799855,-0.456918 1.59009,-0.931483 2.403208,-1.36436 0.735551,-0.391584 -1.446945,0.826953 -2.170417,1.240429 1.101642,-0.975962 1.848161,-1.138031 2.909315,-1.570944 0,0 -2.088101,1.647878 -2.088101,1.647878 l 0,0 c -0.902003,0.390374 -2.331335,0.933187 1.661399,-1.034467 -3.947126,2.265894 -2.437315,1.402748 -0.232802,0.123931 0.03729,-0.02163 -0.07597,0.04079 -0.113271,0.06239 -0.795883,0.460895 -1.593773,0.918371 -2.386258,1.385084 -0.679623,0.400245 3.017901,-1.777885 2.049142,-1.183116 -1.059788,0.607028 -1.946853,1.405894 -3.143764,1.554517 -0.341285,0.04386 -0.671126,0.12861 -1.006156,0.201672 -0.313479,0.05243 -0.623751,0.137828 -0.944626,0.09485 -0.319562,-0.02588 -0.639762,-0.06642 -0.931262,-0.209961 -0.248307,-0.115431 -0.509539,-0.202592 -0.776072,-0.265295 -0.281711,-0.08543 -0.570967,-0.143321 -0.845173,-0.250897 -0.248083,-0.10899 -0.505373,-0.195764 -0.728881,-0.354022 -0.230259,-0.129107 -0.450211,-0.275368 -0.709794,-0.342772 -0.272267,-0.109811 -0.557858,-0.191164 -0.744695,-0.4365 -0.167561,-0.201465 -0.33803,-0.415112 -0.563882,-0.552595 -0.219768,-0.11869 -0.42932,-0.23992 -0.683708,-0.146666 -0.08438,0.03346 -0.32428,0.162777 -0.24595,0.116906 4.59242,-2.689392 0.916574,-0.518144 -0.434815,0.274579 -0.966251,0.33893 -2.5551511,0.857253 1.483978,-1.015732 -1.017672,0.556898 1.403463,-0.769285 -2.533561,1.459505 -0.7118,0.402958 1.415635,-0.819828 2.123452,-1.229742 -0.053,0.03095 -0.105757,0.06231 -0.158984,0.09286 -0.81556,0.468117 -1.628814,0.940288 -2.4473713,1.403143 -0.066906,0.03783 -0.1389631,0.06573 -0.2084447,0.09859 -0.5468774,0.241826 -1.1317927,0.340955 -1.7144305,0.462197 0,0 2.1107275,-1.605202 2.1107275,-1.605202 z"
       transform="translate(0,988.36218)"
       id="path2987"
       style="fill:#0000ff;fill-opacity:1;stroke:none" />
  </g>
</svg>
