<?xml version="1.0" encoding="UTF-8" standalone="no"?>
<!-- Created with Inkscape (http://www.inkscape.org/) -->

<svg
   xmlns:dc="http://purl.org/dc/elements/1.1/"
   xmlns:cc="http://creativecommons.org/ns#"
   xmlns:rdf="http://www.w3.org/1999/02/22-rdf-syntax-ns#"
   xmlns:svg="http://www.w3.org/2000/svg"
   xmlns="http://www.w3.org/2000/svg"
   version="1.1"
   width="64"
   height="64"
   id="svg2">
  <defs
     id="defs4" />
  <metadata
     id="metadata7">
    <rdf:RDF>
      <cc:Work
         rdf:about="">
        <dc:format>image/svg+xml</dc:format>
        <dc:type
           rdf:resource="http://purl.org/dc/dcmitype/StillImage" />
        <dc:title></dc:title>
      </cc:Work>
    </rdf:RDF>
  </metadata>
  <g
     transform="translate(0,-988.36218)"
     id="layer1">
    <path
       d="m 10.176177,14.226107 c 0.396056,-0.08632 0.812235,-0.126966 1.195826,-0.264969 0.04245,-0.01527 0.426454,-0.214646 0.475335,-0.239827 0.07063,-0.03311 0.279303,-0.138586 0.211893,-0.09933 -5.0284292,2.928106 -0.162272,0.07593 0.485246,-0.276996 0.723679,-0.394437 -1.429539,0.820725 -2.145468,1.229061 -0.04204,0.02398 0.0825,-0.05064 0.123755,-0.07596 0.263122,-2.102715 2.148162,-0.904919 3.071546,-1.604959 0.788532,-0.432934 1.267255,-0.696778 -2.057017,1.187333 -0.03713,0.02105 0.06533,-0.0556 0.102087,-0.0773 1.105919,-0.652615 1.637675,-1.267313 2.669431,-1.455709 0.307244,-0.0029 0.541568,0.176783 0.800779,0.312937 0.235767,0.180232 0.436632,0.409426 0.621943,0.640982 0.105149,0.145086 0.257193,0.159028 0.411257,0.212507 0.08866,0.03078 0.171912,0.07556 0.259676,0.108815 0.272733,0.05588 0.477043,0.252804 0.724663,0.363868 0.214946,0.161974 0.473938,0.236865 0.719196,0.340168 0.280856,0.05578 0.54741,0.151037 0.824422,0.222356 0.280882,0.05591 0.543062,0.179855 0.801296,0.300202 0.277082,0.108477 0.577321,0.118644 0.870964,0.130671 0.307913,-0.0042 0.605876,-0.10331 0.914184,-0.138726 0.318282,-0.132817 0.668435,-0.164358 1.009132,-0.192163 0.142972,-0.06672 0.309915,-0.07034 0.455939,-0.123852 0.701983,-0.257265 3.329612,-1.871739 -1.923742,1.112521 1.505705,-0.889821 4.835778,-2.758346 0.338895,-0.196613 -0.03796,0.02162 0.07203,-0.04962 0.109959,-0.07129 0.799855,-0.456918 1.59009,-0.931483 2.403208,-1.36436 0.735551,-0.391584 -1.446945,0.826953 -2.170417,1.240429 1.101642,-0.975962 1.848161,-1.138031 2.909315,-1.570944 0,0 -2.088101,1.647878 -2.088101,1.647878 l 0,0 c -0.902003,0.390374 -2.331335,0.933187 1.661399,-1.034467 -3.947126,2.265894 -2.437315,1.402748 -0.232802,0.123931 0.03729,-0.02163 -0.07597,0.04079 -0.113271,0.06239 -0.795883,0.460895 -1.593773,0.918371 -2.386258,1.385084 -0.679623,0.400245 3.017901,-1.777885 2.049142,-1.183116 -1.059788,0.607028 -1.946853,1.405894 -3.143764,1.554517 -0.341285,0.04386 -0.671126,0.12861 -1.006156,0.201672 -0.313479,0.05243 -0.623751,0.137828 -0.944626,0.09485 -0.319562,-0.02588 -0.639762,-0.06642 -0.931262,-0.209961 -0.248307,-0.115431 -0.509539,-0.202592 -0.776072,-0.265295 -0.281711,-0.08543 -0.570967,-0.143321 -0.845173,-0.250897 -0.248083,-0.10899 -0.505373,-0.195764 -0.728881,-0.354022 -0.230259,-0.129107 -0.450211,-0.275368 -0.709794,-0.342772 -0.272267,-0.109811 -0.557858,-0.191164 -0.744695,-0.4365 -0.167561,-0.201465 -0.33803,-0.415112 -0.563882,-0.552595 -0.219768,-0.11869 -0.42932,-0.23992 -0.683708,-0.146666 -0.08438,0.03346 -0.32428,0.162777 -0.24595,0.116906 4.59242,-2.689392 0.916574,-0.518144 -0.434815,0.274579 -0.966251,0.33893 -2.5551511,0.857253 1.483978,-1.015732 -1.017672,0.556898 1.403463,-0.769285 -2.533561,1.459505 -0.7118,0.402958 1.415635,-0.819828 2.123452,-1.229742 -0.053,0.03095 -0.105757,0.06231 -0.158984,0.09286 -0.81556,0.468117 -1.628814,0.940288 -2.4473713,1.403143 -0.066906,0.03783 -0.1389631,0.06573 -0.2084447,0.09859 -0.5468774,0.241826 -1.1317927,0.340955 -1.7144305,0.462197 0,0 2.1107275,-1.605202 2.1107275,-1.605202 z"
       transform="translate(0,988.36218)"
       id="path2987"
       style="fill:#0000ff;fill-opacity:1;stroke:none" />
    <path
       d="m 26.385153,12.19324 c 0.08504,-0.03685 0.172038,-0.06949 0.255134,-0.110547 0.09019,-0.04456 0.175294,-0.0988 0.264128,-0.146014 0.08789,-0.04671 0.352017,-0.185764 0.265973,-0.135727 -0.674118,0.39202 -1.352791,0.776163 -2.030539,1.161875 -0.06946,0.03953 0.136316,-0.08353 0.205641,-0.12331 0.819105,-0.469971 1.639739,-0.937272 2.459609,-1.405908 -0.702611,0.402922 -1.404496,0.807112 -2.107833,1.208766 -0.04953,0.02829 0.0968,-0.06044 0.14638,-0.08864 0.807123,-0.459131 1.60195,-0.940876 2.423673,-1.373332 0.73151,-0.384978 -2.860821,1.6576 -2.152884,1.230821 2.173699,-1.31041 1.541743,-1.08137 2.534958,-1.426505 0.09666,-0.10556 0.238612,-0.119265 0.357872,-0.178931 0.125472,-0.06277 0.216849,-0.13119 0.354373,-0.176714 0.30719,-0.01069 0.502235,0.213201 0.624902,0.469077 0.07526,0.292345 0.161592,0.583326 0.224043,0.879267 0.05723,0.337442 0.08251,0.681286 0.06552,1.02313 -0.04318,0.285924 -0.124485,0.562295 -0.09813,0.853009 0.04914,0.231256 0.20752,0.360161 0.396001,0.484182 0.188881,0.207126 0.433076,0.257368 0.699172,0.289542 0.24514,-0.04903 0.501239,-0.15361 0.700648,-0.306962 0.813826,-0.438819 0.852533,-0.461102 -2.053284,1.187647 -0.03765,0.02136 0.06875,-0.05264 0.103698,-0.07819 0.104807,-0.07663 0.199195,-0.161003 0.299682,-0.24334 0.838944,-0.571149 1.644911,-0.96721 2.610132,-1.518114 0.723694,-0.413051 -2.876725,1.682644 -2.168999,1.242794 2.05412,-1.276629 1.537319,-1.092769 2.521992,-1.424694 0.301321,-0.02967 0.579782,-0.127051 0.872691,-0.193807 0.362725,-0.0036 0.488771,0.318196 0.555937,0.621595 0.05092,0.347527 0.0444,0.700207 0.04388,1.050525 0.0044,0.366435 -0.06439,0.730811 -0.138837,1.08843 -0.08466,0.290661 -0.15554,0.583016 -0.273201,0.862462 -0.159584,0.247679 -0.291135,0.510099 -0.434148,0.767032 -0.106932,0.254804 -0.252381,0.485834 -0.401271,0.716906 -0.134138,0.224556 -0.262089,0.452096 -0.383726,0.683808 -0.119984,0.282297 -0.203936,0.577526 -0.314636,0.863183 -0.105903,0.286412 -0.165772,0.585665 -0.255468,0.877437 -0.09031,0.29867 -0.09064,0.612212 -0.156942,0.915502 -0.06052,0.286172 -0.180533,0.552884 -0.267261,0.831539 -0.06984,0.205526 -0.129779,0.413263 -0.210303,0.614971 0,0 -2.412704,1.114382 -2.412704,1.114382 l 0,0 c 0.0822,-0.199297 0.169583,-0.390555 0.216499,-0.602689 0.05431,-0.140625 0.08018,-0.284952 0.132791,-0.425809 0.0304,-0.08141 0.08307,-0.153483 0.11188,-0.235467 0.01661,-0.04728 0.02152,-0.09788 0.03228,-0.146824 0.08221,-0.305486 0.09776,-0.612839 0.152655,-0.924429 0.07861,-0.302544 0.181901,-0.594413 0.246012,-0.9011 0.11286,-0.288328 0.213414,-0.578291 0.307411,-0.871378 0.08697,-0.241087 0.23163,-0.491376 0.375035,-0.7023 0.111626,-0.255086 0.321033,-0.44734 0.40296,-0.71795 0.133852,-0.263633 0.266703,-0.525643 0.428854,-0.773655 0.183103,-0.234078 0.208886,-0.529728 0.304846,-0.80399 0.115214,-0.321891 0.146965,-0.687373 0.172083,-1.025779 0.0014,-0.33424 0.0078,-0.669661 -0.02449,-1.002756 -0.03953,-0.252605 -0.04598,-0.340737 -0.321466,-0.258004 -0.282372,0.07922 -0.577905,0.108956 -0.846767,0.229636 -0.843478,0.470083 -0.154643,0.08703 2.044959,-1.187084 -0.641544,0.355183 -5.420866,3.143626 -0.231482,0.124058 0.07431,-0.04324 -0.308329,0.166722 -0.210567,0.14895 -0.169288,0.07705 -0.256684,0.207949 -0.411529,0.300079 -2.11131,1.256191 -1.588884,0.958389 -2.488213,1.469526 -0.265228,0.106885 -0.512865,0.227545 -0.808468,0.158299 -0.292004,-0.06587 -0.55062,-0.177116 -0.769309,-0.388007 -0.233151,-0.183098 -0.425947,-0.37691 -0.503887,-0.673624 -0.04715,-0.3113 -0.01646,-0.607825 0.07108,-0.911331 0.06397,-0.310318 0.0043,-0.636079 -0.02744,-0.948178 -0.05234,-0.277931 -0.145894,-0.544308 -0.196866,-0.822084 -0.08179,-0.185127 -0.216035,-0.235692 -0.39625,-0.131181 -0.234931,0.122907 -0.470609,0.243334 -0.709378,0.358195 -0.84991,0.459718 -0.160672,0.08838 2.031585,-1.178621 -0.815836,0.434767 -1.589085,0.946648 -2.406111,1.379176 -0.725897,0.384285 1.422256,-0.821948 2.132553,-1.234355 0.04975,-0.02888 -0.100588,0.05585 -0.150882,0.08377 -0.810568,0.468933 -1.621136,0.937867 -2.431704,1.406801 4.746677,-2.754806 0.166549,-0.02325 -1.425943,0.757881 0,0 2.071399,-1.656924 2.071399,-1.656924 z"
       transform="translate(0,988.36218)"
       id="path3012"
       style="fill:#0000ff;fill-opacity:1;stroke:none" />
    <path
       d="m 30.514281,22.402975 c 0.419962,-0.424255 0.763366,-0.91029 1.181669,-1.33582 0.237632,-0.247501 0.521666,-0.448211 0.732479,-0.720106 0.152284,-0.20712 0.322389,-0.398905 0.486793,-0.596079 0.189257,-0.17382 0.307614,-0.404762 0.471972,-0.599942 0.239796,-0.164164 0.410487,-0.378218 0.5928,-0.59886 0.197904,-0.233125 0.399924,-0.465498 0.62489,-0.673036 0.285323,-0.161137 0.384298,-0.466386 0.524937,-0.743672 0.221578,-0.289391 0.397847,-0.609641 0.611288,-0.903647 0.27361,-0.259814 0.52602,-0.540538 0.791079,-0.808749 0.181614,-0.203344 0.394218,-0.376653 0.548386,-0.60262 0.153325,-0.208044 0.291234,-0.427936 0.499981,-0.584716 0.195762,-0.183903 0.391387,-0.366779 0.576698,-0.562181 0.167311,-0.223859 0.36988,-0.404942 0.583278,-0.581399 0.688382,-0.783895 1.464231,-0.872448 2.573455,-1.581221 0.701949,-0.448531 -2.886462,1.66459 -2.166699,1.245241 0.79516,-0.463278 1.594846,-0.918746 2.392896,-1.377028 0.723552,-0.415501 -1.446267,0.832457 -2.169401,1.248685 0.86546,-0.613056 -0.103515,0.06832 2.500765,-1.452059 0.719962,-0.420314 -1.444869,0.83211 -2.169011,1.245181 -0.03805,0.02171 0.07237,-0.04961 0.110599,-0.07101 2.421171,-1.355143 1.552,-1.682876 2.510584,-1.281765 0.244059,0.203153 0.194183,0.469848 0.164237,0.750001 -0.0566,0.293682 -0.147214,0.576558 -0.190328,0.8736 -0.06362,0.297937 -0.133341,0.594032 -0.194512,0.892826 -0.04149,0.15141 -0.09159,0.301459 -0.103952,0.459019 -0.0031,0.03949 -0.0035,0.155368 0.01055,0.118349 0.0061,-0.01595 7.7e-5,-0.03414 1.16e-4,-0.0512 0.0072,-0.02114 0.0054,-0.04812 0.02163,-0.06343 0.03616,-0.034 0.153063,-0.03614 0.18727,-0.04972 0.108834,-0.04319 0.229957,-0.123011 0.329523,-0.185139 0.475879,-0.216189 -0.208993,0.08923 0.296624,-0.116629 0.05299,-0.02157 0.204482,-0.102445 0.154918,-0.07387 -0.709336,0.408917 -1.422082,0.811897 -2.134654,1.215148 -0.04795,0.02713 0.09295,-0.05923 0.140686,-0.08674 0.804992,-0.46396 1.611615,-0.925088 2.417422,-1.387632 0.09949,-0.05601 0.215965,-0.05201 0.321054,-0.0875 0.04695,-0.01586 0.177035,-0.0889 0.134032,-0.06428 -3.745239,2.14382 -2.709106,1.595383 -1.95464,1.088517 0.749035,-0.699714 1.59994,-0.96923 2.600144,-1.543303 0.261713,-0.150212 -0.05074,9.79e-4 0.229736,-0.12787 0,0 -2.076504,1.663288 -2.076504,1.663288 l 0,0 c -1.285569,0.720213 2.924718,-1.789418 1.709398,-0.999817 -0.08635,0.103838 -0.08046,0.115435 -0.198268,0.183707 -1.133281,0.65677 -1.80648,1.135627 -2.835652,1.551259 0.709995,-0.411919 1.419101,-0.825373 2.129984,-1.235757 0.04788,-0.02764 -0.09303,0.05985 -0.14091,0.08749 -0.806661,0.465675 -1.611553,0.934488 -2.422639,1.392413 -0.140773,0.07948 -0.310085,0.111907 -0.44498,0.205177 -0.214031,0.09025 -0.48155,0.221426 -0.701031,0.09604 -0.219639,-0.249748 -0.160144,-0.543712 -0.07094,-0.845592 0.102504,-0.275323 0.08901,-0.58556 0.214272,-0.857495 0.02947,-0.295775 0.07217,-0.591296 0.19068,-0.866667 0.01021,-0.116089 0.01254,-0.240621 0.03962,-0.354649 0.004,-0.01685 0.04007,-0.05649 0.02974,-0.04259 -0.0053,0.0071 -0.01485,0.0096 -0.02228,0.01441 -0.727501,0.535183 -0.100027,0.07075 2.142522,-1.224811 0.03739,-0.0216 -0.07695,0.03927 -0.114331,0.06088 -0.796172,0.460262 -1.587021,0.929764 -2.386252,1.384693 -0.686599,0.390818 3.018331,-1.773842 2.050223,-1.189124 -0.792777,0.465559 -1.613856,0.885974 -2.378331,1.396678 -0.69219,0.462416 2.884611,-1.663189 2.161076,-1.251542 -0.799456,0.454841 -1.566687,0.968735 -2.388844,1.381129 -0.74445,0.373415 1.437365,-0.841761 2.155268,-1.263968 0.03598,-0.02116 -0.07572,0.03624 -0.109464,0.06081 -0.03413,0.02485 -0.06178,0.05757 -0.09267,0.08636 -0.0937,0.13646 -0.165976,0.177758 -0.297625,0.268394 -0.133345,0.0918 -0.07987,0.08392 -0.188775,0.206363 -0.03143,0.03533 -0.06907,0.06461 -0.103608,0.09692 -0.05422,0.07569 -0.216925,0.29234 -0.27941,0.351726 -0.09254,0.08795 -0.233396,0.109557 -0.275018,0.256451 -0.231926,0.210391 0.04526,-0.02506 -0.205548,0.140484 -0.136534,0.09012 -0.224837,0.260305 -0.317903,0.388744 -0.187705,0.217916 0.02311,-0.04171 -0.147635,0.222662 -0.101087,0.156526 -0.271678,0.266186 -0.396259,0.401941 -0.242276,0.290823 -0.52928,0.544627 -0.788338,0.820491 -0.261004,0.184676 -0.234067,0.348854 -0.412483,0.58038 -0.03455,0.04483 -0.0834,0.07709 -0.119217,0.120912 -0.03842,0.047 -0.06841,0.10031 -0.10261,0.150464 -0.205873,0.254881 -0.232787,0.616899 -0.47919,0.838045 -0.273892,0.137711 -0.435413,0.399968 -0.658388,0.602628 -0.06532,0.08665 -0.152785,0.155941 -0.212822,0.246332 -0.03054,0.04597 -0.03515,0.105718 -0.06435,0.15255 -0.07329,0.117559 -0.210645,0.136798 -0.289084,0.248554 -0.235502,0.128422 -0.326868,0.371075 -0.480322,0.578943 -0.196043,0.157762 -0.351434,0.371507 -0.498107,0.573651 -0.275249,0.305407 0.105526,-0.129292 -0.174041,0.235618 -0.1531,0.199837 -0.390837,0.331312 -0.564843,0.510869 -0.12746,0.128865 -0.265267,0.247323 -0.390994,0.377878 -0.284774,0.295709 -0.466247,0.675791 -0.79036,0.937783 0,0 -2.442047,1.033564 -2.442047,1.033564 z"
       transform="translate(0,988.36218)"
       id="path3035"
       style="fill:#0000ff;fill-opacity:1;stroke:none" />
    <path
       d="m 45.363548,12.651628 c 0.550267,-0.05437 1.087389,-0.193944 1.635876,-0.268311 0.400449,-0.08513 0.675551,0.07395 0.917043,0.377116 0.171083,0.265172 0.186227,0.584563 0.264771,0.882293 0.0779,0.305268 0.101614,0.619718 0.215095,0.915259 0.09515,0.246237 0.296167,0.433081 0.475138,0.623268 0.147347,0.240857 0.361649,0.301034 0.625238,0.337755 0.28408,0.03681 0.544586,-0.08442 0.796431,-0.195812 0.251843,-0.09387 0.480663,-0.238253 0.720606,-0.359954 0.04403,-0.01501 0.09063,-0.02395 0.132099,-0.04503 0.185856,-0.09447 0.02217,-0.06383 0.224563,-0.135562 0.160249,-0.0568 0.319362,-0.0659 0.47811,-0.132468 0.200078,-0.102359 0.429683,-0.0942 0.641176,-0.146654 0.09514,-0.0236 0.183608,-0.06888 0.276723,-0.0995 0.291622,-0.04935 0.548004,-0.182353 0.839113,-0.237908 0.302047,-0.05544 0.592601,-0.165263 0.882418,-0.269784 0.316684,-0.0523 0.611977,-0.163601 0.921644,-0.241094 0.253323,-0.01402 0.477602,-0.119858 0.720515,-0.179844 0,0 -2.10808,1.620259 -2.10808,1.620259 l 0,0 c -0.237614,0.07299 -0.478409,0.120958 -0.719564,0.180128 -0.301316,0.09354 -0.611984,0.14654 -0.908922,0.254462 -0.294037,0.103239 -0.595628,0.185671 -0.9004,0.250006 -0.276651,0.08467 -0.547752,0.18287 -0.829708,0.250179 -0.302447,0.08761 -0.619006,0.125134 -0.910601,0.251849 -0.288105,0.08044 -0.549825,0.206302 -0.812405,0.348198 -0.235976,0.131849 -0.485934,0.240243 -0.738005,0.337236 -0.286079,0.10376 -0.588995,0.139693 -0.888035,0.06878 -0.295729,-0.08078 -0.542804,-0.214965 -0.718223,-0.475769 -0.194324,-0.220243 -0.42018,-0.424884 -0.519815,-0.708242 -0.123164,-0.30359 -0.167487,-0.621879 -0.231706,-0.941164 -0.07081,-0.260927 -0.08558,-0.539481 -0.209704,-0.780799 -0.211949,-0.237277 -0.451256,-0.218968 -0.753729,-0.161035 -0.549262,0.08527 -1.091968,0.211462 -1.645988,0.264744 0,0 2.128326,-1.582595 2.128326,-1.582595 z"
       transform="translate(0,988.36218)"
       id="path3056"
       style="fill:#0000ff;fill-opacity:1;stroke:none" />
    <path
       d="m 11.069034,26.726107 c 0.548188,-0.105696 1.111744,-0.202339 1.630727,-0.41438 0.216009,-0.122168 0.466223,-0.1313 0.698021,-0.195785 0.09421,-0.02621 0.181508,-0.07303 0.273832,-0.105258 0.04768,-0.01221 0.0975,-0.01797 0.143047,-0.03664 0.0823,-0.03373 0.313139,-0.16877 0.236103,-0.124314 -0.685669,0.395683 -2.752395,1.565723 -2.066835,1.169851 0.797144,-0.460305 1.596584,-0.916623 2.394876,-1.374934 0.285667,-0.05649 0.540528,-0.180657 0.828625,-0.232451 0.05235,-0.0064 0.105906,-0.0063 0.157059,-0.01919 0.09099,-0.02286 0.173844,-0.07163 0.264008,-0.09756 0.148036,-0.04258 0.298523,-0.06168 0.450946,-0.07993 0.292367,-0.146336 0.579031,-0.160055 0.884971,-0.05233 0.278742,0.134094 0.593818,0.125874 0.881629,0.220556 0.289054,0.0794 0.575897,0.131036 0.831228,0.295541 0.200606,0.176731 0.350713,0.399332 0.53927,0.586716 0.166806,0.185389 0.330769,0.377701 0.51796,0.543349 0.215903,0.19851 0.430896,0.387787 0.64232,0.595411 0.214671,0.201654 0.53259,0.212128 0.74829,0.398493 0.07363,0.07589 0.121387,0.09561 0.220076,0.0909 0,0 -2.198475,1.509754 -2.198475,1.509754 l 0,0 c -0.09768,-0.04709 -0.187235,-0.100598 -0.269798,-0.172014 -0.266119,-0.126549 -0.550756,-0.225589 -0.763868,-0.438768 -0.206609,-0.207291 -0.438647,-0.37699 -0.643025,-0.585545 -0.182242,-0.178248 -0.35732,-0.36432 -0.525565,-0.555723 -0.162462,-0.176201 -0.304215,-0.374919 -0.496697,-0.520513 -0.253401,-0.115283 -0.526587,-0.162526 -0.792335,-0.241766 -0.296422,-0.05826 -0.590893,-0.117858 -0.878105,-0.213846 -0.290255,-0.0265 -0.542138,0.07728 -0.822367,0.136097 -0.290307,0.06001 -0.568457,0.163127 -0.861229,0.212615 -0.26768,0.08004 -0.537491,0.168106 -0.790572,0.284762 0.720292,-0.418096 1.43985,-0.837461 2.160878,-1.254287 0.03695,-0.02136 -0.07166,0.04646 -0.108589,0.06786 -0.795684,0.461163 -1.590466,0.923915 -2.389185,1.3798 -0.122582,0.06997 -0.264357,0.088 -0.394054,0.139511 -0.319397,0.102278 -0.652658,0.160879 -0.961792,0.297272 -0.544264,0.158013 -1.0968122,0.279786 -1.6521024,0.391952 0,0 2.1107274,-1.605202 2.1107274,-1.605202 z"
       transform="translate(0,988.36218)"
       id="path3077"
       style="fill:#0000ff;fill-opacity:1;stroke:none" />
  </g>
</svg>
